<?xml version="1.0" encoding="UTF-8"?>
<!-- Generator: visioncortex VTracer 0.6.3 -->
<svg version="1.1" xmlns="http://www.w3.org/2000/svg" width="1280" height="1280">
<path d="M0 0 C4.74 0.65 9.47 1.29 14.22 1.89 C36.66 4.76 56.98 8.49 77.78 17.62 C81.17 19.04 84.61 20.2 88.13 21.29 C95.61 23.63 95.61 23.63 98.35 26.91 C99.45 29.22 100.07 31.29 100.58 33.79 C100.99 35.15 101.41 36.5 101.83 37.86 C102.08 38.83 102.32 39.8 102.58 40.79 C101.46 41.63 100.33 42.47 99.2 43.29 C98.58 43.76 97.95 44.22 97.3 44.7 C95.58 45.79 95.58 45.79 93.58 45.79 C93.25 46.78 92.92 47.77 92.58 48.79 C91.92 48.79 91.26 48.79 90.58 48.79 C89.92 50.44 89.26 52.09 88.58 53.79 C87.92 53.79 87.26 53.79 86.58 53.79 C86.34 54.48 86.1 55.17 85.86 55.88 C84.32 59.38 82.28 62.38 80.08 65.48 C79.67 66.06 79.27 66.64 78.86 67.24 C77.21 69.59 75.61 71.76 73.58 73.79 C72.94 75.86 72.94 75.86 72.58 77.79 C77.83 73.02 82.39 67.16 85.58 60.79 C86.24 60.79 86.9 60.79 87.58 60.79 C87.67 59.99 87.67 59.99 87.77 59.17 C88.98 55.62 91.02 53.53 93.58 50.79 C94.24 50.79 94.9 50.79 95.58 50.79 C95.91 49.8 96.24 48.81 96.58 47.79 C103.67 41.65 110.67 40.9 119.73 41.04 C121.61 41.05 121.61 41.05 123.53 41.05 C126.18 41.07 128.83 41.11 131.48 41.16 C135.45 41.24 139.4 41.21 143.37 41.18 C164.65 41.32 186.1 45.66 202.08 60.79 C203.77 62.53 205.43 64.29 207.05 66.1 C209.48 68.79 212.07 71.31 214.64 73.86 C215.95 75.18 215.95 75.18 217.29 76.54 C219.08 78.3 220.86 79.92 222.83 81.48 C225.03 83.33 226.68 85 228.52 87.17 C232.15 91.44 236.09 95.35 240.08 99.29 C244.55 103.72 248.95 108.14 252.98 112.98 C254.51 114.71 256.1 116.24 257.79 117.81 C262.37 122.37 265.71 127.64 269.2 133.04 C270.61 135.19 272.02 137.34 273.43 139.49 C274.13 140.55 274.83 141.61 275.54 142.71 C278.48 147.17 281.49 151.58 284.52 155.98 C285.05 156.76 285.58 157.55 286.13 158.35 C288.37 161.64 290.61 164.88 293.07 168.01 C300.15 177.31 303.56 187.59 307.41 198.53 C309.35 203.95 311.44 209.31 313.52 214.67 C314.37 216.87 315.22 219.08 316.07 221.28 C316.49 222.37 316.91 223.46 317.34 224.58 C318.52 227.64 319.7 230.71 320.87 233.77 C321.25 234.77 321.63 235.76 322.03 236.78 C322.82 238.86 323.61 240.94 324.41 243.02 C326.67 248.94 328.99 254.84 331.4 260.71 C340.63 283.22 347.92 305.47 353.48 329.15 C355.04 335.78 356.75 342.37 358.46 348.97 C359.02 351.12 359.57 353.27 360.12 355.42 C362.1 363.12 364.1 370.81 366.13 378.49 C371.78 399.92 377.41 421.35 382.66 442.88 C383.2 445.12 383.75 447.37 384.3 449.61 C384.7 451.28 384.7 451.28 385.12 452.99 C386.64 459.18 388.27 465.33 390.05 471.46 C401.57 511.5 402.78 552.39 404.72 593.78 C405.25 605.11 405.95 616.4 406.91 627.7 C409.16 655.2 407.61 680.04 402.95 707.25 C399.28 729.17 398.84 750.34 399.39 772.5 C399.68 785.09 399.68 796.54 396.58 808.79 C396.22 810.56 395.86 812.32 395.52 814.09 C395.21 815.58 394.89 817.06 394.58 818.54 C394.41 819.34 394.24 820.14 394.07 820.96 C392.91 826.38 391.63 831.76 390.23 837.13 C389.36 840.67 388.72 844.24 388.11 847.83 C387.58 849.79 387.58 849.79 385.58 851.79 C383.9 848.04 383.17 844.7 382.73 840.62 C382.6 839.46 382.47 838.3 382.34 837.11 C382.15 835.32 382.15 835.32 381.95 833.48 C381.82 832.26 381.68 831.05 381.55 829.79 C381.22 826.79 380.89 823.79 380.58 820.79 C379.26 820.46 377.94 820.13 376.58 819.79 C376.26 827.43 376.5 834.4 378.08 841.86 C381.04 856.23 381.04 856.23 379.58 862.79 C377.19 865.17 377.19 865.17 374.58 866.79 C372.27 866.54 372.27 866.54 370.58 865.79 C370.56 866.6 370.54 867.4 370.52 868.23 C369.19 873.29 366.3 877.14 362.58 880.79 C361.59 880.79 360.6 880.79 359.58 880.79 C359.55 879.06 359.53 877.34 359.52 875.61 C359.5 874.16 359.5 874.16 359.48 872.69 C359.58 869.79 359.58 869.79 360.08 867.45 C360.77 863.8 360.68 860.18 360.64 856.48 C360.63 855.37 360.63 855.37 360.63 854.24 C360.62 852.42 360.6 850.61 360.58 848.79 C359.26 848.46 357.94 848.13 356.58 847.79 C355.92 859.67 355.26 871.55 354.58 883.79 C353.92 883.79 353.26 883.79 352.58 883.79 C352.53 884.66 352.47 885.53 352.42 886.43 C351.37 890.64 349.21 892.8 346.14 895.67 C345.64 896.17 345.13 896.66 344.62 897.18 C340.87 900.79 340.87 900.79 338.58 900.79 C338.67 900.15 338.76 899.51 338.85 898.85 C339.27 895.94 339.67 893.02 340.08 890.11 C340.22 889.1 340.36 888.09 340.51 887.05 C340.65 886.08 340.78 885.1 340.92 884.09 C341.05 883.2 341.17 882.3 341.3 881.38 C341.57 878.83 341.63 876.36 341.58 873.79 C339.93 876.82 338.98 879.71 338.14 883.04 C337.25 886.44 336.3 889.72 335.02 892.98 C333.27 897.46 331.73 902.13 331.46 906.96 C330.63 916.05 324.22 921.04 317.95 926.92 C316.85 927.98 315.75 929.04 314.66 930.11 C311.98 932.69 309.29 935.25 306.58 937.79 C305.27 935.18 305.82 934.36 306.65 931.6 C306.91 930.75 307.16 929.89 307.42 929.01 C307.84 927.64 307.84 927.64 308.27 926.23 C310.53 918.61 312.58 911 314.2 903.21 C314.82 900.33 315.45 897.99 317.04 895.49 C318.81 892.39 319.45 889.71 320.15 886.21 C320.4 884.95 320.66 883.69 320.93 882.39 C321.18 881.06 321.44 879.74 321.7 878.42 C321.97 877.1 322.24 875.79 322.5 874.47 C324.91 863.13 324.91 863.13 325.52 851.61 C325.47 847.74 325.77 844.18 326.48 840.38 C327.75 833.14 328.48 825.86 329.2 818.54 C329.34 817.2 329.47 815.86 329.61 814.52 C329.94 811.28 330.26 808.04 330.58 804.79 C329.59 804.79 328.6 804.79 327.58 804.79 C327.6 805.45 327.62 806.11 327.64 806.79 C327.79 815.4 327.02 823.79 326.03 832.32 C325.76 834.68 325.51 837.05 325.26 839.41 C325.09 840.93 324.92 842.45 324.75 843.97 C324.64 845.02 324.64 845.02 324.53 846.09 C323.99 850.57 322.67 853.83 320.58 857.79 C319.87 860.29 319.87 860.29 319.47 862.84 C319.3 863.81 319.12 864.78 318.94 865.79 C318.76 866.84 318.58 867.9 318.39 868.98 C307.4 928.75 307.4 928.75 297.58 945.79 C294.14 948.09 292.61 948.06 288.58 947.79 C287.58 946.79 287.58 946.79 287.48 944.94 C287.5 944.12 287.51 943.3 287.52 942.46 C287.54 941.53 287.55 940.6 287.57 939.65 C287.59 938.63 287.61 937.6 287.63 936.55 C287.65 935.49 287.67 934.43 287.68 933.34 C287.75 929.87 287.82 926.39 287.89 922.92 C287.91 921.74 287.94 920.56 287.96 919.35 C288.37 899.46 289.13 879.63 290.58 859.79 C290.68 858.28 290.68 858.28 290.78 856.74 C291.61 844.81 293.57 833.34 295.9 821.62 C297.44 813.49 297.9 805.91 297.62 797.67 C297.57 792.91 298.22 788.5 299.09 783.83 C299.75 779.72 299.87 775.62 299.94 771.45 C301.07 766.73 304.47 764.5 308.42 761.98 C309.44 761.4 310.46 760.83 311.52 760.23 C324.84 752.38 336.54 741.72 344.12 728.19 C345.58 725.79 345.58 725.79 347.5 723.51 C349.62 720.74 350.89 718.22 352.23 715 C352.93 713.34 352.93 713.34 353.64 711.65 C354.12 710.5 354.59 709.35 355.08 708.17 C355.55 707.04 356.02 705.92 356.51 704.76 C367.61 678.16 373.76 651.26 373.95 622.42 C373.97 621.1 373.98 619.78 374 618.42 C373.9 599.32 369.54 574.92 355.66 560.74 C349.08 554.3 341.88 547.79 332.95 544.96 C329.23 543.66 326.49 542.57 324.61 538.91 C322.79 534.34 321.5 529.64 320.23 524.88 C319.34 522.02 317.94 519.46 316.58 516.79 C316.58 515.8 316.58 514.81 316.58 513.79 C315.92 513.79 315.26 513.79 314.58 513.79 C311.58 508.04 311.58 508.04 311.58 505.79 C310.92 505.79 310.26 505.79 309.58 505.79 C309.1 505.09 308.63 504.39 308.14 503.67 C304.91 500.04 301.38 498.42 297.04 496.32 C292.23 493.34 290.9 487.08 289.58 481.79 C288.7 476.19 288.1 470.56 287.52 464.92 C287.2 461.94 286.87 458.97 286.54 455.99 C286.46 455.27 286.39 454.56 286.31 453.82 C285.74 448.84 284.93 443.95 283.98 439.03 C283.47 436.16 283.3 433.33 283.2 430.42 C282.72 422.37 281.14 414.6 279.54 406.71 C278.78 402.98 278.26 399.27 277.83 395.48 C276.8 389.11 273.79 383.75 270.82 378.11 C268.39 373.5 266.21 368.8 264.08 364.04 C263.73 363.28 263.38 362.52 263.02 361.73 C262.54 360.66 262.54 360.66 262.05 359.56 C261.76 358.93 261.48 358.3 261.19 357.65 C260.58 355.79 260.58 355.79 260.58 351.79 C259.92 351.79 259.26 351.79 258.58 351.79 C258.25 350.61 257.91 349.42 257.57 348.19 C256.32 343.7 255.05 339.22 253.78 334.73 C253.24 332.8 252.7 330.87 252.16 328.95 C249.15 318.19 245.98 307.63 241.89 297.23 C240.53 293.68 239.39 290.12 238.27 286.48 C232.82 270.32 226.05 252.83 210.58 243.79 C202.59 240.69 194.17 239.22 185.8 237.54 C177.61 235.65 170.12 231.85 162.88 227.68 C157.07 224.36 150.86 222.06 144.58 219.79 C143.23 219.28 143.23 219.28 141.86 218.75 C140.88 218.39 139.9 218.04 138.89 217.67 C138 217.34 137.11 217 136.19 216.66 C117.58 212.2 96.29 214.58 77.28 215.24 C59.99 215.81 42.71 216.27 25.42 216.58 C20.83 216.66 16.23 216.75 11.64 216.87 C7.08 216.99 2.53 217.08 -2.03 217.15 C-3.73 217.18 -5.43 217.22 -7.13 217.27 C-17.26 217.58 -25.69 216.71 -35.17 212.91 C-42.02 210.22 -48.35 210.42 -55.58 211.24 C-60.13 211.7 -64.67 211.99 -69.23 212.22 C-71.31 212.33 -73.4 212.45 -75.48 212.56 C-77.5 212.67 -79.52 212.77 -81.54 212.87 C-92.27 213.51 -100.96 215.79 -110.55 220.54 C-114.91 222.68 -119.24 224.77 -123.79 226.49 C-131.69 229.49 -136.99 232.3 -141.5 239.79 C-143.27 242.56 -145.22 244.61 -147.53 246.93 C-156.89 256.93 -158.08 270.59 -160.44 283.56 C-161.55 289.59 -162.8 295.6 -164.04 301.61 C-164.96 306.11 -165.88 310.61 -166.8 315.11 C-167.02 316.2 -167.24 317.29 -167.47 318.42 C-168.12 321.58 -168.75 324.74 -169.38 327.91 C-169.57 328.84 -169.77 329.78 -169.96 330.74 C-170.88 335.37 -171.56 339.91 -171.92 344.62 C-172.24 348.6 -172.86 351.85 -174.5 355.54 C-174.93 356.52 -175.37 357.51 -175.81 358.53 C-176.28 359.56 -176.75 360.6 -177.23 361.67 C-178.25 363.98 -179.26 366.29 -180.27 368.6 C-180.79 369.79 -181.32 370.98 -181.86 372.2 C-184.39 378.01 -186.77 383.87 -189.17 389.73 C-198.28 411.82 -207.68 433.79 -217.42 455.61 C-217.93 456.74 -218.43 457.87 -218.95 459.03 C-235.28 495.36 -235.28 495.36 -250.23 502.05 C-250.95 502.29 -251.68 502.54 -252.42 502.79 C-252.42 503.45 -252.42 504.11 -252.42 504.79 C-254.12 506.02 -255.82 507.25 -257.54 508.44 C-260.9 510.86 -263.81 513.25 -265.35 517.15 C-266.51 520 -267.97 522.13 -269.8 524.61 C-271.89 527.54 -273.82 530.35 -275.36 533.61 C-279.19 541.64 -283.69 549.22 -289.92 555.61 C-295.76 561.83 -298.94 569.11 -302.42 576.79 C-303.15 578.35 -303.87 579.91 -304.59 581.47 C-305.31 583.04 -306.02 584.6 -306.73 586.17 C-307.06 586.88 -307.39 587.59 -307.72 588.33 C-312 597.97 -314.36 608.23 -316.93 618.43 C-317.27 619.75 -317.6 621.07 -317.93 622.39 C-319 626.6 -320.05 630.82 -321.11 635.04 C-321.29 635.76 -321.47 636.48 -321.65 637.22 C-326.98 658.47 -332.14 679.73 -336.32 701.24 C-337.09 705.18 -337.93 709.1 -338.82 713.02 C-341.72 726.26 -341.6 738.87 -340.65 752.37 C-340.49 754.75 -340.37 757.14 -340.27 759.53 C-339.84 769.21 -338.4 778.41 -336.31 787.88 C-335.8 790.22 -335.31 792.57 -334.83 794.93 C-331.71 809.63 -325.96 822.84 -319.49 836.35 C-318.42 838.79 -318.42 838.79 -318.42 840.79 C-317.72 841.05 -317.01 841.3 -316.28 841.56 C-313.12 842.93 -310.48 844.61 -307.62 846.54 C-307.08 846.91 -306.53 847.27 -305.97 847.65 C-304.2 848.84 -302.44 850.03 -300.67 851.23 C-298.22 852.9 -295.76 854.56 -293.3 856.22 C-292.39 856.83 -292.39 856.83 -291.47 857.45 C-288.26 859.61 -285.02 861.68 -281.67 863.62 C-268.86 871.12 -259.02 881.64 -248.83 892.29 C-245.15 896.11 -241.46 899.85 -237.42 903.29 C-234.81 905.52 -232.37 907.85 -229.95 910.28 C-226.85 913.36 -223.68 916.38 -220.53 919.42 C-212.55 927.12 -204.61 934.87 -196.69 942.64 C-191.91 947.34 -187.11 952.01 -182.28 956.65 C-177.59 961.16 -172.94 965.71 -168.32 970.28 C-166.56 972.01 -164.79 973.72 -163.01 975.41 C-150.62 987.18 -144.5 997.25 -141.03 1014.06 C-140.23 1017.65 -139.15 1021.12 -138.07 1024.62 C-137.31 1027.18 -136.77 1029.73 -136.35 1032.36 C-136.19 1033.34 -136.03 1034.31 -135.86 1035.32 C-135.7 1036.34 -135.54 1037.37 -135.38 1038.42 C-135.21 1039.52 -135.03 1040.62 -134.85 1041.74 C-134.3 1045.28 -133.77 1048.82 -133.23 1052.36 C-133.05 1053.56 -132.87 1054.76 -132.68 1056 C-130.27 1072.09 -128.57 1087.74 -129.28 1104.01 C-129.8 1115.13 -129.8 1115.13 -124.72 1124.67 C-124.07 1125.04 -123.41 1125.41 -122.73 1125.79 C-121.93 1126.26 -121.13 1126.73 -120.3 1127.21 C-119.35 1127.73 -118.4 1128.25 -117.42 1128.79 C-116.31 1129.48 -115.19 1130.17 -114.05 1130.88 C-103.84 1137.09 -93.16 1141.07 -81.89 1144.93 C-78.64 1146.07 -75.44 1147.29 -72.23 1148.54 C-71.23 1148.93 -70.23 1149.32 -69.19 1149.72 C-67.43 1150.4 -65.68 1151.1 -63.93 1151.81 C-46.06 1158.82 -27.49 1161.02 -8.42 1161.79 C-7.18 1161.85 -7.18 1161.85 -5.91 1161.9 C-1.02 1162.01 3.04 1161.36 7.77 1159.92 C12.48 1158.55 17.07 1157.5 21.95 1156.92 C28.83 1156.06 35.42 1154.42 42.14 1152.73 C49.75 1150.83 56.96 1149.13 64.83 1149 C67.75 1148.87 67.75 1148.87 71.16 1147.8 C75.8 1146.62 80.24 1146.48 85.01 1146.45 C85.89 1146.44 86.77 1146.42 87.67 1146.41 C90.45 1146.36 93.23 1146.33 96.02 1146.29 C99.68 1146.25 103.35 1146.2 107.01 1146.14 C107.84 1146.13 108.66 1146.13 109.51 1146.12 C116.11 1146.01 122.54 1145.38 128.45 1142.29 C132.28 1140.46 135.91 1139.93 140.09 1139.32 C142.81 1138.9 142.81 1138.9 145.58 1136.79 C148.2 1136.81 150.67 1136.93 153.27 1137.17 C153.97 1137.23 154.67 1137.28 155.39 1137.34 C157.12 1137.48 158.85 1137.64 160.58 1137.79 C161.01 1136.91 161.44 1136.03 161.89 1135.13 C177.05 1104.3 177.05 1104.3 184.37 1092.36 C184.9 1091.5 184.9 1091.5 185.44 1090.61 C186.23 1089.36 187.04 1088.11 187.88 1086.89 C193.83 1077.77 197.3 1067.4 201.2 1057.29 C201.96 1055.35 202.72 1053.41 203.48 1051.47 C205.19 1047.07 206.91 1042.67 208.6 1038.27 C209.28 1036.54 209.99 1034.83 210.71 1033.12 C211.08 1032.25 211.44 1031.38 211.82 1030.48 C212.16 1029.7 212.49 1028.92 212.84 1028.12 C213.67 1025.51 213.82 1023.52 213.58 1020.79 C212.39 1018.55 211.19 1016.56 209.77 1014.48 C209.16 1013.57 209.16 1013.57 208.54 1012.64 C207.23 1010.68 205.91 1008.74 204.58 1006.79 C203.71 1005.51 202.85 1004.23 201.99 1002.95 C196.48 994.83 190.78 986.84 184.99 978.91 C184.48 978.2 183.96 977.49 183.43 976.75 C182.93 976.08 182.43 975.4 181.91 974.7 C180.58 972.79 180.58 972.79 178.76 969.52 C175.66 965.65 172.14 964.45 167.58 962.73 C165.97 962.09 164.37 961.46 162.77 960.82 C161.92 960.5 161.07 960.18 160.19 959.86 C157.58 958.79 157.58 958.79 155.14 957.47 C144.5 951.99 132.68 952.96 121.02 952.92 C118.7 952.89 116.39 952.87 114.07 952.84 C100.54 952.7 87.07 952.86 73.56 953.53 C66.86 953.85 60.16 953.95 53.45 953.98 C52.27 953.99 51.09 954 49.88 954.01 C44.42 954 39.16 953.83 33.77 952.96 C18.87 950.66 6.6 953.06 -7.86 956.79 C-8.8 957.04 -9.75 957.28 -10.72 957.52 C-20.76 960.13 -29.88 962.71 -38.42 968.79 C-39.67 969.55 -40.92 970.3 -42.19 971.03 C-59.61 981.38 -75.87 992.79 -92.01 1005.03 C-92.93 1005.72 -93.84 1006.41 -94.78 1007.12 C-96.56 1008.47 -98.33 1009.82 -100.1 1011.17 C-100.9 1011.78 -101.7 1012.38 -102.52 1013 C-103.23 1013.54 -103.93 1014.08 -104.66 1014.64 C-106.42 1015.79 -106.42 1015.79 -108.42 1015.79 C-112.18 995.35 -109.73 973.94 -105.86 953.73 C-105.7 952.85 -105.54 951.97 -105.37 951.06 C-103.51 941.05 -101.78 933.24 -94.42 925.79 C-93.4 924.55 -92.39 923.29 -91.39 922.03 C-90.43 920.87 -89.46 919.7 -88.48 918.54 C-88.01 917.96 -87.54 917.37 -87.05 916.77 C-81.12 909.73 -73.3 906.08 -65.06 902.29 C-63.75 901.68 -63.75 901.68 -62.41 901.06 C-60.58 900.21 -58.74 899.36 -56.91 898.52 C-54.12 897.24 -51.35 895.95 -48.57 894.66 C-34.53 888.14 -20.97 883.2 -5.91 879.65 C-3.36 879.04 -0.81 878.42 1.73 877.8 C9.85 875.85 17.17 874.36 25.58 874.79 C26.24 874.46 26.9 874.13 27.58 873.79 C47.98 871.17 66.84 877.89 83.33 890.09 C84.79 891.26 86.19 892.52 87.58 893.79 C87.58 894.45 87.58 895.11 87.58 895.79 C88.57 896.12 89.56 896.45 90.58 896.79 C91.75 898.79 91.75 898.79 92.77 901.23 C93.11 902.03 93.45 902.84 93.81 903.67 C94.58 905.79 94.58 905.79 94.58 907.79 C97.27 907.43 98.36 907.05 100.18 904.97 C100.71 904.21 101.23 903.45 101.77 902.67 C104.93 898.36 108.35 895.49 112.64 892.35 C114.99 890.47 116.16 888.42 117.58 885.79 C124.05 879.32 132.78 878.21 141.57 877.74 C147.51 877.85 151.16 880.48 155.77 883.86 C160.75 887.46 166.02 890.15 171.52 892.86 C172.39 893.29 173.27 893.72 174.17 894.17 C176.64 895.38 179.11 896.59 181.58 897.79 C188.32 901.09 193.58 904.28 198.7 909.82 C200.48 911.69 202.31 913.2 204.33 914.79 C215.33 924.65 221.27 934.37 224.45 948.92 C224.84 950.65 224.84 950.65 225.23 952.42 C226.86 961.01 226.21 968.26 224.58 976.79 C224.33 978.21 224.08 979.62 223.84 981.03 C222.93 986.3 221.98 991.55 221.03 996.81 C220.63 999.06 220.22 1001.31 219.82 1003.56 C219.7 1004.24 219.57 1004.92 219.44 1005.63 C218.95 1008.4 218.58 1010.97 218.58 1013.79 C228.66 994.22 237.5 975.21 243.41 953.94 C244.73 949.22 246.15 944.53 247.58 939.84 C247.85 938.96 248.12 938.08 248.39 937.18 C248.95 935.36 249.5 933.55 250.05 931.74 C251.45 927.14 252.83 922.55 254.22 917.95 C254.5 917.03 254.77 916.11 255.06 915.17 C255.9 912.38 256.74 909.59 257.58 906.79 C258.14 904.92 258.7 903.05 259.27 901.18 C260.63 896.65 262 892.11 263.36 887.56 C263.87 885.87 264.38 884.18 264.89 882.49 C265.37 880.89 265.85 879.29 266.33 877.7 C266.78 876.19 267.24 874.68 267.7 873.17 C268.75 869.68 269.75 866.19 270.63 862.66 C270.95 861.4 271.27 860.14 271.61 858.84 C271.87 857.74 272.13 856.64 272.41 855.51 C273.85 852.18 275.35 851.32 278.58 849.79 C280.2 893.56 275.02 935.13 261.79 976.91 C260.24 981.83 258.84 986.79 257.43 991.75 C253.38 1005.99 249.09 1020.17 244.78 1034.34 C244.11 1036.54 243.44 1038.74 242.78 1040.95 C241.83 1044.06 240.88 1047.17 239.93 1050.29 C239.65 1051.21 239.38 1052.14 239.09 1053.1 C236.08 1062.87 231.65 1071.85 227.08 1080.98 C226.29 1082.56 226.29 1082.56 225.49 1084.16 C221.56 1091.96 217.45 1099.64 213.22 1107.28 C210.43 1112.33 207.73 1117.42 205.13 1122.58 C198.91 1134.92 192.54 1146.49 184.24 1157.54 C180.9 1162.07 177.72 1166.73 174.52 1171.36 C173.14 1173.33 171.77 1175.31 170.39 1177.29 C166.8 1182.46 163.24 1187.65 159.67 1192.85 C155.88 1198.37 152.05 1203.87 148.2 1209.36 C147.33 1210.61 147.33 1210.61 146.44 1211.88 C145.32 1213.47 144.21 1215.05 143.09 1216.63 C142.16 1217.96 141.25 1219.32 140.37 1220.7 C136.98 1225.92 132.57 1229.12 127.52 1232.67 C125.92 1233.81 124.33 1234.95 122.73 1236.1 C121.94 1236.65 121.14 1237.2 120.32 1237.77 C117.55 1239.74 117.55 1239.74 115.14 1242.04 C106.07 1250 97.68 1250.51 86.03 1251.2 C84.16 1251.34 82.3 1251.49 80.43 1251.64 C75.56 1252.01 70.69 1252.34 65.81 1252.66 C60.82 1252.99 55.84 1253.37 50.85 1253.75 C41.1 1254.47 31.34 1255.15 21.58 1255.79 C21.58 1255.13 21.58 1254.47 21.58 1253.79 C19.67 1253.5 17.76 1253.2 15.85 1252.91 C14.66 1252.72 13.46 1252.54 12.24 1252.35 C9.98 1252.01 7.72 1251.68 5.45 1251.37 C-11.23 1249.09 -24.12 1244.23 -38.51 1235.55 C-43.24 1232.7 -48.05 1230 -52.86 1227.29 C-53.8 1226.76 -54.75 1226.22 -55.72 1225.67 C-75.79 1214.31 -96.44 1204.34 -117.42 1194.79 C-143.1 1183.1 -143.1 1183.1 -155.55 1176.75 C-158.16 1175.42 -160.78 1174.11 -163.4 1172.8 C-164.75 1172.13 -166.1 1171.45 -167.45 1170.78 C-170.63 1169.18 -173.82 1167.6 -177.04 1166.08 C-190.67 1159.56 -203.53 1151.65 -216.42 1143.79 C-217.45 1143.17 -218.49 1142.54 -219.55 1141.89 C-230.8 1134.99 -241.4 1127.77 -251.54 1119.33 C-255.04 1116.48 -258.64 1113.77 -262.23 1111.04 C-263.32 1110.21 -263.32 1110.21 -264.43 1109.36 C-267.35 1107.11 -270.27 1104.9 -273.3 1102.79 C-280.97 1097.28 -285.64 1089.84 -290.85 1082.11 C-293.44 1078.3 -296.15 1074.58 -298.86 1070.86 C-299.95 1069.35 -301.04 1067.84 -302.13 1066.33 C-303.23 1064.82 -304.33 1063.31 -305.42 1061.79 C-306.52 1060.28 -307.61 1058.77 -308.71 1057.25 C-309.25 1056.51 -309.79 1055.76 -310.35 1054.99 C-311.44 1053.48 -312.53 1051.96 -313.62 1050.44 C-316.14 1046.9 -318.69 1043.43 -321.45 1040.08 C-331.3 1027.77 -335.99 1013.42 -341.24 998.75 C-342.89 994.17 -344.7 989.69 -346.66 985.22 C-352.97 970.72 -356.3 955.11 -360.15 939.83 C-361.42 934.8 -362.72 929.78 -364.02 924.77 C-364.84 921.61 -365.66 918.45 -366.48 915.29 C-366.68 914.55 -366.87 913.8 -367.07 913.03 C-367.62 910.92 -368.16 908.81 -368.71 906.7 C-369.02 905.51 -369.32 904.31 -369.64 903.09 C-370.88 897.85 -371.55 892.89 -371.67 887.51 C-371.7 886.34 -371.73 885.17 -371.77 883.96 C-371.83 881.52 -371.89 879.07 -371.94 876.63 C-371.97 875.45 -372.01 874.28 -372.04 873.08 C-372.07 872.01 -372.09 870.95 -372.12 869.86 C-372.31 866.72 -372.31 866.72 -373.54 863.62 C-374.66 860.02 -373.5 858.62 -372.08 855.29 C-370.75 850.24 -371.9 845 -372.53 839.89 C-374.43 824.31 -374.52 809.09 -373.75 793.43 C-373.34 784.23 -373.66 775.53 -374.95 766.41 C-375.51 762.14 -375.58 758.09 -375.42 753.79 C-376.08 753.79 -376.74 753.79 -377.42 753.79 C-377.61 755.31 -377.61 755.31 -377.8 756.86 C-378.42 760.79 -378.42 760.79 -379.51 764.07 C-380.53 768.23 -380.32 771.11 -379.71 775.34 C-379.61 776.03 -379.52 776.72 -379.42 777.43 C-379.12 779.62 -378.81 781.8 -378.48 783.98 C-378.17 786.18 -377.86 788.37 -377.56 790.56 C-377.28 792.55 -377 794.53 -376.71 796.51 C-376.46 799.36 -376.48 801.14 -377.42 803.79 C-390.34 783.65 -394.21 760.65 -391.11 737.11 C-389.24 722.21 -388.38 707.25 -387.51 692.27 C-387.45 691.32 -387.4 690.36 -387.34 689.38 C-387.23 687.59 -387.13 685.8 -387.03 684.01 C-386.55 676.15 -385.5 669.57 -381.42 662.79 C-380.82 660.08 -380.33 657.47 -379.92 654.73 C-379.68 653.21 -379.43 651.69 -379.17 650.17 C-379.05 649.43 -378.92 648.68 -378.8 647.92 C-377.59 641.06 -375.81 634.42 -373.23 627.96 C-372.22 625.25 -371.43 622.5 -370.61 619.73 C-368.72 613.46 -366.35 607.51 -363.79 601.5 C-362.78 598.76 -362.11 596.49 -361.56 593.67 C-360.24 587.34 -357.71 581.47 -355.3 575.48 C-354.8 574.24 -354.3 572.99 -353.81 571.74 C-352.82 569.26 -351.82 566.77 -350.82 564.28 C-349.58 561.19 -348.35 558.1 -347.13 555.01 C-344.28 547.83 -341.4 540.68 -338.3 533.61 C-335.75 527.74 -333.58 521.79 -331.51 515.74 C-330.43 512.58 -329.31 509.54 -327.94 506.49 C-325.95 501.65 -324.67 496.72 -323.36 491.67 C-322.85 489.73 -322.34 487.79 -321.82 485.85 C-321.49 484.57 -321.49 484.57 -321.15 483.27 C-320.42 480.79 -320.42 480.79 -319.37 478.22 C-318.16 475.12 -317.81 472.09 -317.42 468.79 C-318.08 468.79 -318.74 468.79 -319.42 468.79 C-319.53 469.4 -319.65 470 -319.76 470.62 C-320.96 476.86 -322.47 482.94 -324.23 489.04 C-324.5 489.96 -324.76 490.87 -325.03 491.81 C-327.76 501.13 -330.73 510.3 -334.86 519.11 C-336.97 523.61 -338.68 528.16 -340.3 532.86 C-348.32 556.03 -348.32 556.03 -352.98 564.86 C-358.18 574.77 -361.21 585.92 -364.42 596.6 C-365.87 601.22 -367.52 605.76 -369.18 610.31 C-371.78 617.6 -374.14 624.98 -376.48 632.36 C-376.74 633.16 -377 633.95 -377.26 634.78 C-379.76 642.66 -381.6 650.34 -382.57 658.57 C-383.82 663.28 -385.11 667.13 -388.42 670.79 C-392.63 673.1 -396.97 674.23 -401.61 675.36 C-402.26 675.52 -402.9 675.69 -403.57 675.86 C-414.53 678.63 -425.27 679.52 -436.55 679.48 C-437.26 679.48 -437.97 679.48 -438.7 679.48 C-446.69 679.43 -454.11 678.66 -461.83 676.5 C-465.29 675.56 -468.6 675.2 -472.17 674.86 C-479.83 674.03 -487.07 672.25 -494.5 670.29 C-502.84 668.15 -511.29 666.56 -519.8 665.32 C-522.42 664.79 -522.42 664.79 -524.63 663.83 C-528.02 662.57 -531.18 662.18 -534.77 661.76 C-535.81 661.63 -535.81 661.63 -536.87 661.51 C-539.08 661.24 -541.28 660.99 -543.48 660.73 C-545.69 660.47 -547.9 660.21 -550.11 659.95 C-552.11 659.71 -554.11 659.48 -556.11 659.24 C-558.64 658.9 -560.96 658.44 -563.42 657.79 C-567.05 657.49 -570.67 657.29 -574.3 657.08 C-577.42 656.79 -577.42 656.79 -579.42 655.79 C-581.28 655.72 -583.14 655.71 -585 655.72 C-596.98 655.67 -608.18 655.36 -619.61 651.48 C-620.93 651.04 -620.93 651.04 -622.29 650.58 C-626.76 648.92 -626.76 648.92 -628.42 647.79 C-630.23 643.43 -628.76 639.17 -627.8 634.73 C-627.64 633.92 -627.49 633.1 -627.33 632.26 C-627.08 631.08 -627.08 631.08 -626.82 629.88 C-626.6 628.81 -626.6 628.81 -626.37 627.72 C-624.66 624.24 -621.4 623.16 -617.91 621.84 C-614.98 620.96 -612.05 620.08 -609.11 619.23 C-608.04 618.92 -606.97 618.61 -605.87 618.29 C-598.56 616.23 -591.51 614.82 -583.96 614.18 C-581.3 613.89 -579.01 613.48 -576.44 612.84 C-569.74 611.29 -562.88 610.88 -556.05 610.29 C-547.08 609.52 -538.25 608.58 -529.42 606.79 C-522.48 605.41 -515.61 604.45 -508.56 603.81 C-495.13 602.57 -482.43 600.3 -469.42 596.79 C-467.19 596.23 -464.96 595.66 -462.73 595.11 C-461.93 594.9 -461.12 594.69 -460.29 594.47 C-457.77 593.88 -455.26 593.37 -452.71 592.89 C-447.53 591.86 -442.49 590.48 -437.42 588.98 C-435.58 588.44 -433.73 587.91 -431.89 587.37 C-430.97 587.11 -430.06 586.84 -429.11 586.57 C-425.83 585.62 -422.54 584.73 -419.24 583.84 C-407.87 580.76 -396.91 577.24 -386.42 571.79 C-385.76 571.79 -385.1 571.79 -384.42 571.79 C-384.42 571.13 -384.42 570.47 -384.42 569.79 C-383.27 568.64 -382.11 567.49 -380.93 566.36 C-376.17 561.41 -371.53 555.62 -370.42 548.79 C-371.41 548.79 -372.4 548.79 -373.42 548.79 C-373.44 549.6 -373.46 550.4 -373.48 551.23 C-375.89 560.39 -384.38 567.75 -392.25 572.5 C-404.15 578.63 -417.2 581.52 -430.08 584.9 C-434.33 586.04 -438.53 587.31 -442.73 588.61 C-448.73 590.43 -454.73 591.7 -460.89 592.77 C-465.38 593.56 -469.63 594.67 -473.96 596.04 C-482.69 598.72 -491.4 600.12 -500.45 601.03 C-505.51 601.55 -510.48 602.27 -515.48 603.17 C-524.24 604.71 -533.04 605.8 -541.86 606.86 C-542.58 606.94 -543.3 607.03 -544.05 607.12 C-552.41 608.12 -560.78 609.05 -569.17 609.86 C-575.29 610.45 -581.12 611.56 -587.08 613.06 C-591.2 613.96 -595.3 614.54 -599.48 615.04 C-600.21 615.14 -600.94 615.23 -601.69 615.32 C-605.15 615.72 -608.11 616 -611.42 614.79 C-611.09 614.13 -610.76 613.47 -610.42 612.79 C-607.78 613.12 -605.14 613.45 -602.42 613.79 C-602.26 613.18 -602.09 612.56 -601.92 611.93 C-599.9 604.41 -597.74 596.94 -595.52 589.48 C-595.12 588.14 -594.72 586.8 -594.33 585.46 C-593.75 583.49 -593.17 581.52 -592.58 579.56 C-592.24 578.4 -591.89 577.24 -591.54 576.05 C-589.91 571.31 -587.98 567.1 -584.64 563.32 C-584.13 562.73 -583.62 562.14 -583.09 561.53 C-582.56 560.94 -582.03 560.34 -581.48 559.73 C-580.43 558.53 -579.38 557.33 -578.33 556.13 C-577.64 555.35 -577.64 555.35 -576.93 554.55 C-576.18 553.68 -576.18 553.68 -575.42 552.79 C-574.76 552.05 -574.1 551.31 -573.42 550.54 C-571.11 547.36 -569.8 544.13 -568.5 540.46 C-568.24 539.74 -567.98 539.03 -567.71 538.29 C-566.88 536 -566.05 533.71 -565.23 531.42 C-564.44 529.21 -563.63 527 -562.83 524.79 C-562.27 523.25 -561.71 521.7 -561.16 520.15 C-559.67 516 -558.08 511.96 -556.23 507.96 C-548.09 489.79 -545.8 470.68 -542.91 451.15 C-541.76 443.42 -540.53 435.71 -539.31 427.99 C-539.01 426.08 -538.71 424.18 -538.41 422.27 C-536.02 407.08 -533.32 392 -529.98 376.98 C-529.78 376.07 -529.58 375.15 -529.37 374.21 C-528.42 369.96 -527.46 365.71 -526.48 361.47 C-524.94 354.7 -523.53 347.91 -522.11 341.13 C-521.68 339.09 -521.24 337.05 -520.8 335.01 C-519.52 329.07 -518.29 323.13 -517.22 317.15 C-513.83 298.88 -507.01 282.5 -499.7 265.53 C-497.08 259.43 -494.63 253.28 -492.24 247.08 C-491.22 244.46 -490.19 241.83 -489.16 239.21 C-488.51 237.54 -487.88 235.88 -487.25 234.21 C-483.13 223.25 -478.34 215.33 -469.87 207.21 C-467.44 204.83 -465.2 202.31 -462.92 199.79 C-462.02 198.8 -461.11 197.81 -460.2 196.82 C-459.75 196.33 -459.29 195.83 -458.82 195.32 C-455.39 191.58 -451.93 187.84 -448.48 184.11 C-446.38 181.83 -444.27 179.55 -442.17 177.26 C-441.64 176.68 -441.1 176.1 -440.55 175.5 C-439.54 174.4 -438.53 173.3 -437.52 172.19 C-427.68 161.51 -416.24 153.33 -404.5 144.89 C-398.97 140.92 -393.47 136.9 -387.98 132.86 C-387.2 132.28 -386.41 131.7 -385.6 131.1 C-381.6 128.15 -377.6 125.18 -373.63 122.18 C-364.69 115.46 -355.63 109.29 -346.02 103.57 C-341.09 100.62 -336.28 97.5 -331.48 94.36 C-323.48 89.12 -315.42 83.98 -307.32 78.88 C-302.08 75.58 -296.84 72.25 -291.61 68.92 C-290.69 68.34 -289.77 67.75 -288.83 67.15 C-284.16 64.18 -279.5 61.2 -274.84 58.22 C-262.83 50.52 -250.78 42.92 -238.42 35.79 C-237.43 35.22 -237.43 35.22 -236.42 34.63 C-229.02 30.4 -222.63 28.12 -214.14 27.27 C-210.59 26.82 -207.33 26.09 -203.88 25.15 C-203.24 24.97 -202.6 24.8 -201.94 24.62 C-198.15 23.58 -194.37 22.49 -190.6 21.36 C-146.91 8.37 -102.38 2.48 -57.28 -3.41 C-54.26 -3.81 -51.27 -4.23 -48.27 -4.79 C-33.16 -6.99 -15.06 -2.07 0 0 Z M-123.42 54.79 C-126 55.54 -128.58 56.22 -131.17 56.92 C-134.81 57.92 -137.27 58.69 -140.42 60.79 C-143.09 61.45 -145.74 62.05 -148.42 62.61 C-154.52 63.96 -159.93 65.65 -165.55 68.45 C-169.12 70.12 -172.78 71.41 -176.48 72.73 C-182.98 75.09 -188.61 78.04 -194.42 81.79 C-195.91 82.64 -197.41 83.47 -198.92 84.29 C-202.29 86.16 -205.65 88.05 -208.98 89.98 C-209.83 90.47 -210.68 90.96 -211.55 91.46 C-212.17 91.9 -212.79 92.34 -213.42 92.79 C-213.42 93.45 -213.42 94.11 -213.42 94.79 C-214.15 95.05 -214.89 95.31 -215.64 95.58 C-218.52 96.84 -220.51 98.24 -222.92 100.23 C-223.79 100.94 -224.65 101.66 -225.55 102.39 C-226.5 103.18 -227.44 103.98 -228.42 104.79 C-229.48 105.67 -230.55 106.54 -231.61 107.42 C-240.77 115 -249.47 122.85 -256.62 132.42 C-259.51 136.23 -262.62 139.85 -265.7 143.51 C-267.62 145.58 -267.62 145.58 -267.42 147.79 C-268.08 147.79 -268.74 147.79 -269.42 147.79 C-272.84 152.38 -275.83 157.38 -278.3 162.54 C-280.25 166.62 -282.54 170.48 -284.86 174.36 C-285.23 174.98 -285.6 175.61 -285.99 176.25 C-287.88 179.4 -289.85 182.44 -292.02 185.41 C-294.1 188.28 -295.84 191.21 -297.48 194.36 C-299 197.24 -300.53 199.96 -302.36 202.66 C-309.7 213.8 -314.18 225.87 -317.42 238.76 C-319.72 247.73 -322.68 256.1 -326.36 264.61 C-332.74 279.42 -337.2 294.41 -339.68 310.35 C-341.75 319.98 -347.52 329.02 -353.36 336.86 C-355.71 339.6 -355.71 339.6 -355.42 342.79 C-354.43 342.79 -353.44 342.79 -352.42 342.79 C-352.1 342.18 -351.77 341.56 -351.43 340.93 C-351 340.12 -350.56 339.31 -350.11 338.48 C-349.68 337.68 -349.25 336.88 -348.81 336.06 C-347.42 333.79 -347.42 333.79 -345.94 332.33 C-343.94 330.3 -342.78 328.11 -341.42 325.61 C-340.68 324.25 -340.68 324.25 -339.92 322.88 C-336.9 316.66 -335.11 310.92 -334.11 304.04 C-333.02 297.24 -331.4 290.7 -329.42 284.11 C-329.17 283.27 -328.92 282.43 -328.67 281.57 C-327.27 277.06 -325.59 273 -323.42 268.79 C-322.9 267.18 -322.42 265.56 -321.98 263.92 C-321.09 260.76 -320.1 258.03 -318.48 255.17 C-316.4 251.23 -315.31 247.09 -314.23 242.79 C-314.07 242.13 -313.9 241.46 -313.73 240.78 C-312.62 236.14 -311.95 231.54 -311.42 226.79 C-310.76 226.79 -310.1 226.79 -309.42 226.79 C-308.77 224.88 -308.13 222.96 -307.48 221.04 C-307.12 219.98 -306.77 218.91 -306.39 217.81 C-305.64 215.48 -304.97 213.18 -304.42 210.79 C-303.43 210.79 -302.44 210.79 -301.42 210.79 C-301.11 209.76 -300.8 208.73 -300.48 207.67 C-298.61 202.57 -295.62 198.25 -292.56 193.81 C-290.32 190.49 -288.86 187.8 -288.42 183.79 C-287.43 183.46 -286.44 183.13 -285.42 182.79 C-284.2 181.08 -284.2 181.08 -283.17 178.92 C-281.23 175.23 -279.14 171.73 -276.86 168.23 C-274.8 165.05 -272.91 161.91 -271.3 158.48 C-269.53 154.76 -267.1 151.94 -264.42 148.79 C-263.73 147.6 -263.06 146.39 -262.42 145.17 C-260.41 141.78 -258.53 140.13 -255.42 137.79 C-255.42 137.13 -255.42 136.47 -255.42 135.79 C-254.76 135.79 -254.1 135.79 -253.42 135.79 C-253.34 135.2 -253.26 134.6 -253.17 133.98 C-252.22 131.19 -250.78 130.47 -248.42 128.79 C-248.42 128.13 -248.42 127.47 -248.42 126.79 C-247.43 126.46 -246.44 126.13 -245.42 125.79 C-245.42 125.13 -245.42 124.47 -245.42 123.79 C-244.84 123.55 -244.27 123.3 -243.67 123.04 C-241.09 121.61 -239.36 120.01 -237.42 117.79 C-237.42 117.13 -237.42 116.47 -237.42 115.79 C-236.76 115.79 -236.1 115.79 -235.42 115.79 C-235.42 115.13 -235.42 114.47 -235.42 113.79 C-234.83 113.52 -234.23 113.24 -233.61 112.96 C-231.54 111.85 -230.08 110.75 -228.36 109.17 C-223.64 105.02 -218.53 101.44 -213.42 97.79 C-212.76 97.31 -212.09 96.82 -211.41 96.31 C-207.54 93.49 -203.6 91.11 -199.42 88.79 C-197.07 87.41 -194.74 86.01 -192.48 84.47 C-184.34 79.08 -175.15 76.1 -166.03 72.77 C-163.39 71.78 -160.8 70.73 -158.2 69.65 C-154.34 68.09 -150.58 66.99 -146.48 66.17 C-142.75 65.41 -140.62 64.93 -137.42 62.79 C-135.45 62.14 -135.45 62.14 -133.22 61.58 C-132.4 61.37 -131.59 61.16 -130.75 60.94 C-129.9 60.73 -129.05 60.51 -128.17 60.29 C-126.5 59.87 -124.83 59.44 -123.16 59.01 C-122.35 58.81 -121.55 58.6 -120.72 58.39 C-116.58 57.32 -112.48 56.15 -108.42 54.79 C-104.07 54.56 -99.71 54.57 -95.35 54.55 C-93.22 54.54 -91.1 54.51 -88.97 54.48 C-77.88 54.4 -67.87 56.12 -57.12 58.88 C-52.52 60.02 -47.92 60.73 -43.23 61.42 C-41.92 61.62 -41.92 61.62 -40.58 61.83 C-36.5 62.43 -32.56 62.98 -28.42 62.79 C-28.42 61.8 -28.42 60.81 -28.42 59.79 C-42.41 56.76 -42.41 56.76 -56.6 55.14 C-59.5 54.78 -62.2 54.07 -65.02 53.3 C-83.35 48.47 -105.57 48.32 -123.42 54.79 Z M196.58 192.79 C196.58 193.78 196.58 194.77 196.58 195.79 C200.41 195.12 203.91 194.01 207.58 192.73 C219.89 188.93 235.89 189.48 247.77 194.73 C254.69 198.61 261.6 204.75 266.3 211.13 C266.93 211.96 266.93 211.96 267.58 212.79 C268.24 212.79 268.9 212.79 269.58 212.79 C269.98 213.87 269.98 213.87 270.4 214.96 C271.58 217.81 272.95 220.42 274.45 223.11 C275.25 224.55 275.25 224.55 276.05 226.02 C276.96 227.67 277.87 229.32 278.79 230.97 C284.02 240.79 284.4 251.91 285.58 262.79 C287.06 263.29 287.06 263.29 288.58 263.79 C288.99 239.72 280.91 220.43 264.13 203.02 C259.41 198.34 254.66 194.57 248.58 191.79 C247.51 191.22 246.43 190.64 245.33 190.04 C228.39 184.4 212.57 185.74 196.58 192.79 Z M-366.42 392.79 C-366.42 393.78 -366.42 394.77 -366.42 395.79 C-367.41 395.79 -368.4 395.79 -369.42 395.79 C-369.42 396.45 -369.42 397.11 -369.42 397.79 C-370.5 398.17 -370.5 398.17 -371.59 398.55 C-374.7 399.92 -377.04 401.61 -379.73 403.67 C-384.15 406.96 -388.41 409.53 -393.42 411.79 C-393.42 412.45 -393.42 413.11 -393.42 413.79 C-393.98 413.88 -394.54 413.96 -395.11 414.04 C-399.21 415.37 -402.08 418.5 -405.3 421.29 C-407.84 423.43 -410.51 424.97 -413.43 426.56 C-416.88 428.7 -419.95 431.32 -423.09 433.89 C-424.59 435.12 -426.14 436.3 -427.72 437.42 C-428.28 437.87 -428.84 438.33 -429.42 438.79 C-429.42 439.45 -429.42 440.11 -429.42 440.79 C-430.08 440.79 -430.74 440.79 -431.42 440.79 C-431.42 441.45 -431.42 442.11 -431.42 442.79 C-432.41 442.79 -433.4 442.79 -434.42 442.79 C-436.11 444.78 -437.78 446.78 -439.42 448.79 C-440.41 449.12 -441.4 449.45 -442.42 449.79 C-443.16 451.81 -443.16 451.81 -443.42 453.79 C-443.98 453.86 -444.54 453.92 -445.11 453.98 C-449.93 455.67 -452.49 459.85 -455.14 463.99 C-459.56 470.2 -465 475.67 -470.87 480.5 C-476.66 485.31 -480.89 490.93 -484.48 497.48 C-486.24 500.48 -488 502.37 -490.42 504.79 C-490.42 505.78 -490.42 506.77 -490.42 507.79 C-491.41 507.79 -492.4 507.79 -493.42 507.79 C-495.85 510.41 -495.85 510.41 -496.42 513.79 C-497.08 513.79 -497.74 513.79 -498.42 513.79 C-498.75 515.11 -499.08 516.43 -499.42 517.79 C-497.01 517.68 -497.01 517.68 -494.42 516.79 C-492.03 513.61 -492.03 513.61 -491.42 509.79 C-490.54 509.43 -490.54 509.43 -489.64 509.06 C-484.36 506.05 -480.1 499.16 -477.42 493.79 C-477.42 492.8 -477.42 491.81 -477.42 490.79 C-476.84 490.57 -476.27 490.34 -475.67 490.11 C-472.84 488.46 -471.44 486.36 -469.42 483.79 C-467.76 482.46 -466.09 481.13 -464.42 479.79 C-463.07 478.14 -461.74 476.48 -460.42 474.79 C-458.76 473.13 -457.09 471.46 -455.42 469.79 C-451.82 466.29 -451.82 466.29 -450.42 461.79 C-449.82 461.69 -449.23 461.59 -448.61 461.48 C-446.11 460.7 -445.05 459.82 -443.42 457.79 C-443.42 457.13 -443.42 456.47 -443.42 455.79 C-442.43 455.46 -441.44 455.13 -440.42 454.79 C-440.42 454.13 -440.42 453.47 -440.42 452.79 C-439.76 452.79 -439.1 452.79 -438.42 452.79 C-438.42 452.13 -438.42 451.47 -438.42 450.79 C-437.43 450.46 -436.44 450.13 -435.42 449.79 C-434.04 448.51 -432.72 447.16 -431.42 445.79 C-426.76 440.91 -426.76 440.91 -423.42 439.79 C-421.73 438.15 -420.07 436.48 -418.42 434.79 C-413.48 430.39 -408.45 427.45 -402.67 424.29 C-400.29 422.71 -399.1 421.08 -397.42 418.79 C-396.43 418.46 -395.44 418.13 -394.42 417.79 C-394.42 417.13 -394.42 416.47 -394.42 415.79 C-393.49 415.61 -393.49 415.61 -392.55 415.42 C-390.23 414.92 -390.23 414.92 -388.42 412.79 C-387.7 412.55 -386.98 412.3 -386.23 412.04 C-382.93 410.57 -380.78 408.6 -378.17 406.13 C-376.25 404.66 -374.78 404.21 -372.42 403.79 C-372.42 403.13 -372.42 402.47 -372.42 401.79 C-371.84 401.53 -371.27 401.26 -370.67 400.98 C-368.39 399.78 -366.45 398.39 -364.42 396.79 C-364.75 395.47 -365.08 394.15 -365.42 392.79 C-365.75 392.79 -366.08 392.79 -366.42 392.79 Z M216.58 1015.79 C217.58 1018.79 217.58 1018.79 217.58 1018.79 Z " fill="currentColor" transform="translate(722.421875,12.206014633178711)"/>
<path d="M0 0 C5.57 -0.09 11.14 -0.15 16.71 -0.19 C18.54 -0.2 20.37 -0.22 22.2 -0.24 C37.83 -0.43 53.41 0.51 68.45 5.04 C70.94 5.5 73.44 5.94 75.95 6.35 C82.69 7.54 88.91 9.34 95.36 11.66 C98.87 12.91 102.43 13.84 106.02 14.8 C113.61 16.95 120.54 20.02 127.63 23.42 C128.81 23.97 129.99 24.52 131.21 25.09 C137.61 28.1 143.84 31.28 149.94 34.86 C152.78 36.2 155.35 36.61 158.45 37.04 C167.78 41.26 175.55 49.64 179.45 59.04 C180.22 64.07 180.17 69.03 180.01 74.1 C179.98 75.5 179.96 76.89 179.94 78.29 C179.52 97.48 175.01 114.45 167.45 132.04 C166.76 134.04 166.07 136.04 165.38 138.04 C162.52 145.55 158.28 151.73 153.68 158.25 C151.85 160.9 150.17 163.63 148.45 166.35 C145.08 171.42 141.21 175.54 136.82 179.74 C134.71 181.78 132.79 183.87 130.88 186.1 C125.39 192.48 119.92 198.69 112.47 202.77 C110.27 204.08 110.27 204.08 107.91 206.28 C103.47 210.05 98.33 212.67 93.26 215.48 C91.79 216.3 91.79 216.3 90.3 217.14 C88.32 218.24 86.34 219.34 84.35 220.43 C82.49 221.46 80.64 222.51 78.8 223.59 C71.84 227.58 64.64 230.41 57.09 233.03 C55.08 233.73 53.07 234.44 51.07 235.16 C37.82 239.86 25.14 242.53 11.07 243.29 C10.37 243.33 9.68 243.37 8.96 243.41 C-17.8 244.89 -42.13 241.96 -67.55 233.04 C-68.54 232.7 -69.53 232.36 -70.55 232.01 C-83.77 227.4 -95.14 222.83 -106.1 213.98 C-108.21 212.32 -110.34 210.8 -112.55 209.29 C-116.13 206.63 -118.18 203.95 -120.34 200.09 C-121.58 197.99 -123 196.23 -124.55 194.35 C-128.11 189.66 -129.93 184.57 -131.84 179.04 C-132.62 176.85 -133.47 174.69 -134.32 172.53 C-146.95 139.64 -149.83 90.14 -135.55 57.04 C-135.22 56.25 -134.89 55.46 -134.55 54.64 C-132.2 49.52 -129.1 44.42 -125.55 40.04 C-124.89 40.04 -124.23 40.04 -123.55 40.04 C-123.33 39.5 -123.1 38.97 -122.87 38.42 C-117.35 28.43 -107.68 23.78 -97.55 19.42 C-96.72 19.05 -95.88 18.68 -95.01 18.3 C-93.34 17.56 -91.66 16.83 -89.97 16.1 C-88.44 15.43 -86.91 14.73 -85.4 14 C-78.87 10.9 -72.13 9.18 -65.12 7.48 C-63.24 7.02 -63.24 7.02 -61.33 6.56 C-57.74 5.7 -54.15 4.86 -50.55 4.04 C-49.71 3.84 -48.86 3.65 -47.98 3.45 C-33.83 0.31 -19.35 0.27 -4.92 0.07 C-3.28 0.05 -1.64 0.03 0 0 Z " fill="currentColor" transform="translate(598.5533447265625,525.9596557617188)"/>
<path d="M0 0 C24.22 0 24.22 0 36.25 1.75 C37.55 1.93 38.85 2.11 40.2 2.29 C44.13 2.84 48.07 3.42 52 4 C53.23 4.18 54.45 4.36 55.72 4.55 C59.15 5.06 62.57 5.59 66 6.12 C67.01 6.28 68.03 6.44 69.07 6.6 C73.08 7.26 77.01 7.93 80.9 9.09 C84.22 10.07 87.26 10.4 90.69 10.66 C93.6 11.09 96.21 12.06 99 13 C101.82 13.72 104.66 14.36 107.5 15 C110.34 15.64 113.17 16.31 116 17 C117.12 17.26 118.24 17.52 119.39 17.79 C122 19 122 19 123.36 21.27 C125.6 29.63 126.53 37.77 127.31 46.38 C128.25 56.41 129.94 65.54 133.03 75.12 C135.09 81.62 136.77 88.13 138.25 94.78 C138.44 95.65 138.63 96.51 138.83 97.4 C139.6 100.89 140.37 104.38 141.1 107.88 C143.18 117.8 145.35 126.41 151 135 C151.54 135.86 152.09 136.71 152.65 137.6 C154.86 141.03 157.13 144.42 159.41 147.81 C163.82 154.48 166.69 160.78 168.88 168.49 C169.22 169.69 169.57 170.89 169.93 172.13 C170.64 174.61 171.32 177.1 171.98 179.6 C174.42 187.8 177.34 192.13 184.34 197.11 C186.97 198.98 189.12 201.01 191.38 203.31 C198.24 208.92 207.48 209.47 216 210.65 C218 211 218 211 220 212 C220.02 232.32 220.04 252.63 220.05 272.95 C220.06 282.39 220.06 291.82 220.08 301.26 C220.09 309.49 220.09 317.73 220.09 325.97 C220.1 330.32 220.1 334.67 220.11 339.02 C220.14 357.7 220.02 376.33 219 395 C218.03 395.14 218.03 395.14 217.03 395.28 C216.18 395.4 215.33 395.52 214.45 395.64 C213.18 395.82 213.18 395.82 211.88 396.01 C205.46 397 200.08 398.76 195.58 403.61 C190.97 410.01 187.29 416.9 183.66 423.88 C181.49 427.95 179.06 431.79 176.5 435.62 C175.81 436.69 175.12 437.75 174.41 438.85 C173.94 439.56 173.48 440.27 173 441 C168.13 440.43 164.17 438.89 159.81 436.75 C158.5 436.12 157.18 435.49 155.86 434.86 C155.21 434.54 154.56 434.23 153.9 433.91 C151.14 432.59 148.35 431.32 145.56 430.06 C144.68 429.66 143.79 429.26 142.88 428.85 C142.26 428.57 141.64 428.29 141 428 C136.64 437.32 132.3 446.65 128 456 C121.97 452.09 116.2 447.95 110.56 443.5 C108.98 442.26 107.4 441.02 105.82 439.79 C105.02 439.16 104.22 438.53 103.4 437.88 C99.59 434.89 95.76 431.91 91.94 428.94 C91.2 428.37 90.47 427.79 89.71 427.2 C83.69 422.52 77.64 417.88 71.57 413.26 C68.01 410.55 64.48 407.81 61 405 C62.75 394.94 65.68 385.23 68.5 375.44 C69.25 372.82 70 370.19 70.75 367.57 C71.21 365.95 71.68 364.33 72.15 362.71 C73.25 358.85 74.28 354.99 75.22 351.09 C75.39 350.36 75.56 349.64 75.74 348.89 C76.17 346.86 76.17 346.86 75.07 344.55 C74.32 343.66 74.32 343.66 73.56 342.75 C72.07 340.92 72.07 340.92 71 339 C71.48 334.39 73.46 330.37 75.35 326.2 C75.69 325.45 76.03 324.69 76.37 323.91 C77.45 321.5 78.54 319.1 79.62 316.69 C80.33 315.11 81.04 313.54 81.75 311.96 C82.27 310.8 82.27 310.8 82.8 309.61 C83.5 308.04 84.2 306.47 84.9 304.9 C86.57 301.14 88.28 297.41 90.12 293.72 C94.34 285.11 95.85 278.6 93.94 269 C93.3 265.37 92.66 261.74 92 258 C83.42 258 74.84 258 66 258 C72 251 72 251 74.48 248.3 C75.23 247.46 75.98 246.62 76.75 245.75 C77.51 244.92 78.27 244.09 79.05 243.23 C80.92 240.14 81.44 238.45 82.03 234.97 C82.19 233.99 82.36 233.02 82.53 232.01 C83.25 227.4 83.9 222.79 84.51 218.17 C84.64 217.18 84.77 216.19 84.9 215.17 C85.17 213.08 85.45 211 85.71 208.91 C86.12 205.77 86.54 202.63 86.96 199.49 C89.55 179.81 88.7 162.14 86.17 142.49 C85.69 138.68 85.22 134.87 84.75 131.05 C84.44 128.6 84.13 126.15 83.82 123.7 C83.69 122.57 83.55 121.45 83.41 120.29 C81.91 108.84 78.28 98.72 73.94 88.06 C73.46 86.89 72.98 85.71 72.49 84.5 C68.53 74.94 64.03 65.79 58.97 56.77 C57.93 54.87 56.96 52.94 56 51 C47.63 51.39 39.54 52.96 31.35 54.63 C30.04 54.89 30.04 54.89 28.7 55.16 C27.91 55.32 27.13 55.48 26.32 55.65 C23.83 56.03 21.51 56.13 19 56 C16.85 53.85 17.04 49.71 16.62 46.75 C16.49 45.99 16.36 45.22 16.22 44.43 C15.92 42.19 15.74 40.25 16 38 C18.23 35.23 18.23 35.23 21 33 C25.44 27.96 28.72 23.66 30 17 C27.08 19.56 25.53 22.49 23.69 25.88 C20.92 30.73 18.56 33.82 14 37 C11.95 38.81 11.95 38.81 11.16 40.86 C9.67 43.6 7.79 45.21 5.44 47.25 C4.63 47.96 3.83 48.66 3 49.39 C1 51 1 51 0 51 C0 34.17 0 17.34 0 0 Z M152 206 C150.9 210.13 151.2 213.24 151.92 217.43 C153.33 226.67 153.3 235.88 153.26 245.22 C153.25 248.13 153.26 251.04 153.27 253.95 C153.28 263.83 152.91 273.27 151 283 C150.69 284.87 150.38 286.75 150.07 288.62 C148.32 298.7 146.26 308.3 143 318 C142.38 320.02 141.77 322.04 141.19 324.06 C140.93 324.92 140.68 325.78 140.42 326.66 C139.97 329.14 140.2 330.63 141 333 C141.66 333 142.32 333 143 333 C143.46 331.69 143.92 330.38 144.38 329.06 C144.63 328.33 144.89 327.6 145.15 326.85 C145.86 324.47 146.43 322.14 146.95 319.71 C147.76 315.98 148.73 312.34 149.8 308.67 C154.44 292.84 157.12 276.83 157.2 260.32 C157.21 259.43 157.21 258.53 157.22 257.61 C157.23 255.73 157.24 253.85 157.24 251.97 C157.25 249.17 157.28 246.36 157.31 243.55 C157.37 234.15 156.98 224.99 155.61 215.68 C155.48 214.82 155.36 213.96 155.23 213.07 C154.9 211.03 154.46 209.01 154 207 C153.34 206.67 152.68 206.34 152 206 Z " fill="currentColor" transform="translate(122,670)"/>
<path d="M0 0 C1.34 -0.01 1.34 -0.01 2.7 -0.01 C18.02 -0.04 32.4 0.92 47 6 C48.55 6.53 48.55 6.53 50.14 7.08 C62.89 11.59 72.12 17.79 81.81 27.31 C82.68 28.13 83.55 28.95 84.44 29.79 C92.49 38.34 94.63 50.17 96.81 61.31 C96.99 62.14 97.17 62.96 97.35 63.81 C98.86 71.21 99.2 78.4 99.19 85.94 C99.19 87.82 99.19 87.82 99.18 89.75 C99.03 102.2 97.25 114.13 94.81 126.31 C94.54 127.76 94.26 129.21 93.98 130.66 C92.7 137.06 91.14 143.22 88.81 149.31 C88.38 150.45 87.95 151.6 87.5 152.77 C84.37 160.86 80.81 168.61 76.81 176.31 C76.08 177.79 75.35 179.27 74.62 180.75 C71.57 186.76 71.57 186.76 69.81 189.31 C69.15 189.31 68.49 189.31 67.81 189.31 C67.54 190.03 67.28 190.76 67 191.5 C61.15 205.35 47.67 213.6 35.19 220.9 C32.97 222.22 30.83 223.63 28.69 225.06 C16.4 232.61 -0.29 229.56 -13.93 227.63 C-15.48 227.41 -17.03 227.2 -18.58 227 C-29.12 225.64 -38.37 223.56 -48.19 219.31 C-48.79 219.11 -49.4 218.91 -50.03 218.7 C-55.67 216.8 -60 213.87 -64.75 210.31 C-70.55 205.93 -70.55 205.93 -77 202.66 C-80.19 201.31 -81.48 200.37 -83.56 197.69 C-87.47 192.91 -91.79 188.64 -96.19 184.31 C-97.85 182.65 -99.52 180.98 -101.19 179.31 C-102.05 178.57 -102.05 178.57 -102.94 177.8 C-108.79 172.5 -111.98 166.68 -115.18 159.52 C-115.99 157.7 -116.84 155.9 -117.69 154.11 C-120.95 146.99 -123.05 140.25 -124.49 132.57 C-125.13 129.6 -125.99 127.06 -127.14 124.26 C-130.46 115.61 -131.47 106.29 -132.88 97.19 C-133.03 96.21 -133.18 95.23 -133.34 94.22 C-140.94 45.01 -140.94 45.01 -128.38 27.31 C-119.98 18.12 -107.97 14.35 -96.44 10.56 C-95.62 10.29 -94.8 10.02 -93.96 9.75 C-78.19 4.88 -62.04 2.62 -45.62 1.56 C-44.74 1.5 -43.86 1.44 -42.96 1.38 C-28.64 0.41 -14.35 0.02 0 0 Z " fill="currentColor" transform="translate(992.1875,549.6875)"/>
<path d="M0 0 C1.31 0.07 1.31 0.07 2.65 0.14 C9.89 0.6 16.41 1.94 23.34 4.03 C24.38 4.33 25.42 4.64 26.5 4.95 C29.84 5.93 33.17 6.93 36.5 7.94 C37.63 8.28 38.77 8.62 39.94 8.97 C47.64 11.27 55.32 13.62 63 16 C63.86 16.27 64.73 16.53 65.62 16.8 C70.37 18.27 75.1 19.79 79.81 21.38 C80.9 21.72 81.99 22.06 83.11 22.41 C90.25 24.93 93.66 28.2 97 35 C97.51 36.24 98.02 37.49 98.5 38.75 C100.04 42.09 101.55 43.44 104.44 45.62 C108.32 49.06 111.04 53.92 112 59 C112.14 62.85 112.18 66.31 111 70 C107.6 68.67 104.3 67.23 101.01 65.64 C100.06 65.19 99.12 64.74 98.15 64.27 C97.15 63.79 96.15 63.31 95.12 62.81 C93.04 61.82 90.96 60.82 88.87 59.82 C85.5 58.21 82.13 56.57 78.79 54.89 C70.17 50.62 61.54 47.98 52.26 45.6 C49.32 44.82 46.41 43.93 43.5 43.03 C35.46 40.56 27.5 38.77 19.2 37.38 C17.07 37.01 14.95 36.62 12.82 36.22 C0.48 33.98 -11.48 33.6 -24 33.75 C-25.99 33.76 -27.97 33.78 -29.96 33.79 C-40.83 33.87 -51.7 34.03 -62.56 34.38 C-63.58 34.41 -64.59 34.44 -65.63 34.47 C-72.54 34.75 -79.2 35.77 -86 37 C-87.32 37.21 -88.65 37.41 -89.98 37.61 C-108.07 40.49 -126.17 44.75 -142.51 53.2 C-152.81 58.51 -162.83 60.23 -174.16 61.86 C-178.65 62.53 -182.69 63.54 -187 65 C-189.71 65.23 -192.27 65.09 -195 65 C-187.2 48.38 -178.36 36.09 -161 29 C-146.13 22.92 -146.13 22.92 -131.94 15.44 C-126.13 12.04 -120.22 9.15 -114 6.56 C-113.24 6.23 -112.48 5.9 -111.7 5.56 C-98.46 0.25 -83.03 0.54 -68.94 -0.12 C-68.08 -0.17 -67.23 -0.21 -66.35 -0.25 C-44.21 -1.33 -22.14 -1.34 0 0 Z " fill="currentColor" transform="translate(643,487)"/>
<path d="M0 0 C0 0.66 0 1.32 0 2 C0.99 2.33 1.98 2.66 3 3 C4.47 5.13 5.75 7.19 7 9.44 C7.36 10.07 7.71 10.71 8.08 11.36 C10.85 16.42 12.59 21.41 14 27 C14.55 28.71 15.11 30.42 15.69 32.12 C16.06 33.24 16.06 33.24 16.45 34.38 C16.63 34.92 16.81 35.45 17 36 C16.37 35.82 15.74 35.64 15.09 35.45 C2.57 31.93 -10.02 28.88 -23.07 28.8 C-23.85 28.79 -24.63 28.78 -25.43 28.78 C-27.99 28.76 -30.56 28.75 -33.12 28.75 C-34.01 28.75 -34.9 28.75 -35.82 28.75 C-78.04 28.8 -120.62 30.56 -159 50 C-158.62 39.79 -157.23 33.87 -149.68 26.73 C-147.38 24.62 -145.03 22.56 -142.67 20.51 C-141.17 19.15 -139.74 17.72 -138.32 16.28 C-126.87 4.75 -110.45 -6.56 -93.96 -7.5 C-92.9 -7.56 -92.9 -7.56 -91.82 -7.62 C-83.46 -8.09 -75.1 -8.49 -66.73 -8.87 C-63.98 -9 -61.23 -9.13 -58.48 -9.27 C-53.92 -9.49 -49.35 -9.67 -44.78 -9.84 C-43.03 -9.9 -41.29 -9.98 -39.55 -10.06 C-24.98 -10.76 -12.04 -9.09 0 0 Z " fill="currentColor" transform="translate(1028,516)"/>
<path d="M0 0 C4.31 6.46 2.98 16.54 2 24 C1.1 27.62 -0.12 31 -1.56 34.44 C-1.88 35.21 -2.21 35.98 -2.54 36.78 C-5.04 42.18 -8.27 45.47 -13 49 C-14.14 49.93 -14.14 49.93 -15.31 50.88 C-17 52 -17 52 -19 52 C-20.14 54.19 -21.05 56.19 -21.75 58.56 C-23 61 -23 61 -25.2 61.93 C-35.71 63.31 -46.17 63.24 -56.76 63.04 C-59.98 63 -63.19 63.05 -66.41 63.12 C-80.09 63.24 -94.56 61.95 -105 52 C-106.98 47.9 -106.8 44.71 -106.22 40.25 C-105.86 36.56 -105.98 32.88 -106.03 29.17 C-106.08 24.78 -106.04 20.39 -106 16 C-104.4 15.35 -102.79 14.71 -101.19 14.06 C-100.29 13.7 -99.4 13.34 -98.48 12.97 C-94.89 11.57 -91.85 10.82 -88.03 10.52 C-86.5 10.4 -86.5 10.4 -84.94 10.28 C-83.83 10.19 -82.72 10.11 -81.58 10.02 C-79.2 9.83 -76.82 9.63 -74.44 9.44 C-73.2 9.34 -71.95 9.23 -70.66 9.13 C-49.36 7.37 -28.47 5.25 -7.62 0.47 C-4.96 -0.01 -2.69 -0.31 0 0 Z " fill="currentColor" transform="translate(865,1052)"/>
<path d="M0 0 C1.18 3.53 0.89 5.8 0.56 9.5 C-0.67 25.54 -0.82 40.17 5 55.36 C7.37 61.62 8.84 67.8 10.12 74.37 C10.89 78 10.89 78 12.4 81.23 C14.91 87.85 15.48 94.96 16.41 101.93 C16.62 103.5 16.84 105.06 17.06 106.62 C17.62 110.72 18.17 114.83 18.73 118.93 C19.17 122.24 19.63 125.55 20.08 128.86 C20.63 132.86 21.18 136.87 21.72 140.87 C21.82 141.61 21.92 142.35 22.03 143.11 C22.32 145.27 22.61 147.43 22.9 149.59 C23 150.28 23.09 150.97 23.18 151.68 C23.67 155.32 24.11 158.97 24.51 162.62 C24.59 163.39 24.68 164.15 24.76 164.93 C24.92 166.38 25.07 167.83 25.21 169.27 C25.92 175.79 28.05 181.18 30.94 187 C31.42 188.02 31.9 189.04 32.4 190.09 C35.44 196.35 38.89 202.06 42.88 207.75 C49.7 217.5 53.66 230 53 242 C51.78 246 49.99 249.76 48.25 253.56 C47.76 254.63 47.27 255.71 46.76 256.81 C42.44 265.85 37.22 272.21 30 279 C28.13 281.11 26.31 283.25 24.5 285.41 C21.92 288.15 20.07 289.93 16.25 290.19 C15.51 290.13 14.76 290.06 14 290 C14.66 289.38 15.32 288.76 16 288.12 C23.16 280.9 28.77 272.67 33.87 263.9 C35.12 261.81 36.42 259.75 37.73 257.7 C43.7 248.03 47.21 240.62 45 229 C41.56 217.15 34.15 207.06 27.15 197.08 C26.08 195.55 26.08 195.55 25 194 C24.29 193.07 23.58 192.13 22.85 191.17 C18.53 183.76 18.64 175.31 18.19 166.94 C17.42 154.91 15.78 143.18 13.82 131.31 C12.65 124.22 11.61 117.16 10.94 110 C10.03 100.68 8.54 90.84 4.15 82.48 C0.95 76.31 -0.73 69.55 -2.56 62.88 C-2.76 62.16 -2.96 61.45 -3.16 60.71 C-13 24.71 -13 24.71 -9 10 C-7.44 8.09 -7.44 8.09 -5.56 6.38 C-3.29 4.27 -1.74 2.62 0 0 Z " fill="currentColor" transform="translate(849,597)"/>
<path d="M0 0 C0.66 1.32 1.32 2.64 2 4 C1.53 4.44 1.05 4.88 0.57 5.33 C-0.86 6.7 -2.25 8.1 -3.62 9.54 C-6 12 -6 12 -8.54 14.18 C-16.71 22.48 -15.8 31.51 -15.72 42.59 C-15.42 52.46 -14.22 59.75 -6.86 66.72 C-2.26 70.39 2.68 73.57 7.65 76.7 C11.88 79.4 15.13 81.78 18 86 C16 87 16 87 13.59 86.43 C6.24 83.78 -0.1 80.33 -6.62 76.06 C-7.41 75.56 -8.19 75.06 -8.99 74.54 C-13.47 71.52 -16.08 69.21 -18 64 C-18.23 63.39 -18.46 62.78 -18.7 62.14 C-22.22 52.44 -23.67 44.31 -22 34 C-21.89 32.87 -21.79 31.75 -21.68 30.59 C-20.86 22.96 -19.22 18.56 -14 13 C-13 11.88 -12 10.75 -11.01 9.62 C-2.39 0 -2.39 0 0 0 Z " fill="currentColor" transform="translate(730,797)"/>
<path d="M0 0 C2.17 1.92 4.16 3.91 6.13 6.03 C8.02 8.02 10.01 9.75 12.12 11.5 C15.49 14.38 18.06 17.47 20.58 21.11 C22.21 23.28 24.05 25.12 26 27 C13.06 27.57 13.06 27.57 8 24 C6.66 22.75 5.33 21.5 4 20.25 C0.92 17.37 0.92 17.37 -3.25 16.94 C-5.9 17.88 -5.9 17.88 -7.82 19.05 C-14.75 22.07 -24.97 20.25 -32 18 C-38.25 15.33 -43.79 12.39 -49 8 C-48.2 1.73 -47.11 -5.79 -42 -10 C-28.19 -15.64 -11.34 -8.03 0 0 Z M-44 -5 C-46.39 -1.2 -47.18 2.37 -46.69 6.81 C-41.38 13.69 -28.96 16.35 -21 19 C-14.7 18.46 -10.91 16.95 -6 13 C-1.01 13 1.31 14.86 5 18 C7.99 19.61 10.78 20.93 14 22 C14.5 23.49 14.5 23.49 15 25 C15.99 25 16.98 25 18 25 C17.92 22.25 17.52 20.52 15.55 18.54 C14.32 17.53 13.08 16.53 11.84 15.54 C10.11 14.09 8.77 12.64 7.38 10.88 C3.47 6.15 -0.57 3.68 -6 1 C-7.26 0.34 -8.51 -0.31 -9.77 -0.97 C-26.6 -9.89 -26.6 -9.89 -44 -5 Z " fill="currentColor" transform="translate(801,852)"/>
<path d="M0 0 C0.66 0 1.32 0 2 0 C2 0.66 2 1.32 2 2 C1.34 2 0.68 2 0 2 C0 1.34 0 0.68 0 0 Z " fill="currentColor" transform="translate(449,555)"/>
<path d="" fill="currentColor" transform="translate(0,0)"/>
<path d="" fill="currentColor" transform="translate(0,0)"/>
<style>
    path { fill: #6B176D; }
    @media (prefers-color-scheme: dark) {
        path { fill: #0F94AF; }
    }
</style>    
</svg>