<?xml version="1.0" encoding="UTF-8"?>
<!DOCTYPE svg PUBLIC "-//W3C//DTD SVG 1.1//EN" "http://www.w3.org/Graphics/SVG/1.1/DTD/svg11.dtd">
<svg xmlns="http://www.w3.org/2000/svg" version="1.1" width="708px" height="708px" style="shape-rendering:geometricPrecision; text-rendering:geometricPrecision; image-rendering:optimizeQuality; fill-rule:evenodd; clip-rule:evenodd" xmlns:xlink="http://www.w3.org/1999/xlink">
<g><path style="opacity:0.999" fill="#3B82F6" d="M 540.5,173.5 C 541.29,172.391 541.79,171.058 542,169.5C 542.333,170.167 542.667,170.833 543,171.5C 544.333,170.167 545.667,170.167 547,171.5C 547.308,170.692 547.808,170.025 548.5,169.5C 549.231,171.401 549.231,173.401 548.5,175.5C 552.333,174.839 553.833,176.172 553,179.5C 555.184,177.534 557.518,176.867 560,177.5C 561.92,177.062 563.754,176.395 565.5,175.5C 564.667,173.833 563.833,172.167 563,170.5C 561.611,172.227 559.944,173.561 558,174.5C 557.05,173.978 556.216,173.311 555.5,172.5C 554.131,174.124 552.464,174.624 550.5,174C 551.435,171.619 551.768,169.119 551.5,166.5C 553.911,166.137 555.411,167.137 556,169.5C 556.5,169 557,168.5 557.5,168C 556.89,166.053 556.057,164.219 555,162.5C 552.81,165.249 551.143,164.915 550,161.5C 549.299,158.072 549.632,154.738 551,151.5C 552.011,152.337 553.178,152.67 554.5,152.5C 553.754,155.386 553.92,158.386 555,161.5C 556.415,158.042 556.915,154.375 556.5,150.5C 554.146,150.162 551.813,149.662 549.5,149C 549.493,146.881 548.326,145.047 546,143.5C 545.667,144.833 545.333,146.167 545,147.5C 543.194,144.521 541.027,141.854 538.5,139.5C 539.868,138.406 541.035,138.74 542,140.5C 542.448,138.591 541.615,137.424 539.5,137C 539.833,136.667 540.167,136.333 540.5,136C 538.5,135.5 536.5,135 534.5,134.5C 533.353,134.818 532.519,135.484 532,136.5C 530.594,134.636 530.094,132.803 530.5,131C 528.527,130.505 526.527,130.338 524.5,130.5C 524.5,128.833 524.5,127.167 524.5,125.5C 525.833,125.5 527.167,125.5 528.5,125.5C 528.054,121.427 525.72,119.427 521.5,119.5C 521.724,117.213 522.391,115.047 523.5,113C 523.167,112.5 522.833,112 522.5,111.5C 521.155,112.347 520.155,113.513 519.5,115C 516.5,115.667 513.5,115.667 510.5,115C 509.874,114.25 509.374,113.416 509,112.5C 508.86,115.043 508.194,117.377 507,119.5C 507.054,116.809 505.887,114.976 503.5,114C 508.658,113.317 508.658,112.484 503.5,111.5C 503.725,107.944 502.892,107.61 501,110.5C 499.174,109.99 499.007,109.156 500.5,108C 499.892,107.13 499.059,106.63 498,106.5C 495.872,107.538 494.872,108.871 495,110.5C 489.622,104.903 484.788,105.237 480.5,111.5C 477.972,110.502 477.972,109.669 480.5,109C 478.598,107.606 478.265,105.773 479.5,103.5C 477.473,103.338 475.473,103.505 473.5,104C 472.167,105 472.167,106 473.5,107C 472.207,107.49 470.873,107.657 469.5,107.5C 469.5,105.5 469.5,103.5 469.5,101.5C 468.022,101.238 466.689,101.571 465.5,102.5C 464.329,105.855 462.662,106.189 460.5,103.5C 455.391,106.258 450.058,106.924 444.5,105.5C 441.731,107.102 438.731,108.102 435.5,108.5C 432.084,106.774 428.418,105.774 424.5,105.5C 421.501,106.156 420.834,107.823 422.5,110.5C 420.353,111.835 418.353,111.669 416.5,110C 420.5,109.333 420.5,108.667 416.5,108C 419.23,106.768 419.063,105.935 416,105.5C 413.825,105.834 411.992,106.834 410.5,108.5C 407.041,107.696 403.541,107.029 400,106.5C 393.286,107.52 392.786,110.02 398.5,114C 395.24,114.784 392.073,114.617 389,113.5C 389.222,111.544 390.055,109.71 391.5,108C 389.806,106.613 388.14,106.946 386.5,109C 383.308,109.197 380.308,110.03 377.5,111.5C 375.106,109.932 372.606,108.599 370,107.5C 369.424,109.377 369.591,111.211 370.5,113C 370.041,115.355 369.208,117.521 368,119.5C 363.897,118.03 363.73,115.863 367.5,113C 365.723,110.848 364.223,111.015 363,113.5C 361.026,113.353 359.026,113.019 357,112.5C 354.725,115.144 352.391,115.144 350,112.5C 348.404,113.497 346.904,114.663 345.5,116C 346.308,116.308 346.975,116.808 347.5,117.5C 346.313,118.519 345.313,119.686 344.5,121C 338.731,121.784 335.231,124.951 334,130.5C 332.829,131.893 331.329,132.727 329.5,133C 330.727,134.587 330.394,135.921 328.5,137C 326.473,138.879 324.14,140.046 321.5,140.5C 321.723,142.342 322.057,144.175 322.5,146C 322.505,148.163 321.505,149.663 319.5,150.5C 320.5,151.333 321.5,152.167 322.5,153C 317.597,153.226 315.597,155.559 316.5,160C 315.354,160.645 314.354,161.478 313.5,162.5C 310.833,163.123 308.333,164.123 306,165.5C 305.503,168.146 305.336,170.813 305.5,173.5C 302.511,174.298 299.845,175.798 297.5,178C 299.441,178.743 301.274,178.576 303,177.5C 303.692,178.025 304.192,178.692 304.5,179.5C 301.696,181.138 299.029,182.971 296.5,185C 294.963,186.11 294.297,187.61 294.5,189.5C 288.755,190.175 287.089,187.841 289.5,182.5C 288.758,181.713 287.925,181.047 287,180.5C 286.768,181.737 286.268,182.737 285.5,183.5C 285.5,182.833 285.5,182.167 285.5,181.5C 286.723,178.726 288.223,176.059 290,173.5C 290.887,168.928 290.22,164.595 288,160.5C 285.853,161.113 283.686,161.779 281.5,162.5C 281.709,163.086 282.043,163.586 282.5,164C 280.616,164.216 278.949,164.883 277.5,166C 270.352,166.351 270.019,167.184 276.5,168.5C 276.33,169.822 276.663,170.989 277.5,172C 275.167,172.333 272.833,172.667 270.5,173C 271.573,174.25 271.573,175.584 270.5,177C 272.929,180.998 271.762,183.832 267,185.5C 266.626,184.584 266.126,183.75 265.5,183C 263.782,182.654 262.115,182.154 260.5,181.5C 260.167,182.167 259.833,182.833 259.5,183.5C 258.902,186.13 258.902,188.963 259.5,192C 258.414,194.204 257.414,196.371 256.5,198.5C 257.665,199.584 258.998,200.417 260.5,201C 257.937,201.918 255.77,201.418 254,199.5C 252.055,200.863 249.888,201.697 247.5,202C 246.643,202.689 245.977,203.522 245.5,204.5C 247.435,205.563 249.101,206.897 250.5,208.5C 251.086,208.291 251.586,207.957 252,207.5C 252.967,208.678 253.467,210.011 253.5,211.5C 254.325,212.386 255.325,212.719 256.5,212.5C 256.646,216.441 257.646,220.108 259.5,223.5C 259.633,226.907 258.466,227.24 256,224.5C 255.517,223.552 255.351,222.552 255.5,221.5C 254.448,221.649 253.448,221.483 252.5,221C 250.287,216.12 246.787,212.62 242,210.5C 241.654,212.218 241.154,213.885 240.5,215.5C 242.958,216.124 244.624,217.624 245.5,220C 247.167,220.333 248.833,220.667 250.5,221C 248.285,221.17 246.285,221.837 244.5,223C 245.308,223.308 245.975,223.808 246.5,224.5C 245.835,226.101 245.501,227.601 245.5,229C 240.665,230.591 235.998,232.424 231.5,234.5C 231.167,232.5 230.833,230.5 230.5,228.5C 230.328,227.508 230.662,226.842 231.5,226.5C 233.737,225.186 236.071,224.02 238.5,223C 237.062,222.781 235.729,222.281 234.5,221.5C 235.407,218.943 236.407,216.443 237.5,214C 234.272,210.779 234.938,209.279 239.5,209.5C 239.5,208.5 239.5,207.5 239.5,206.5C 235.781,205.772 232.781,206.772 230.5,209.5C 229.833,208.167 229.167,206.833 228.5,205.5C 227.914,205.709 227.414,206.043 227,206.5C 226.632,205.09 225.799,204.09 224.5,203.5C 224.396,205.485 223.063,206.985 220.5,208C 222.929,208.451 223.096,209.285 221,210.5C 219.456,207.736 218.289,207.903 217.5,211C 214.057,211.221 213.724,212.221 216.5,214C 215.91,215.509 215.244,217.009 214.5,218.5C 210.275,219.346 205.942,220.68 201.5,222.5C 201.085,225.368 202.085,227.535 204.5,229C 200.659,230.165 199.825,232.332 202,235.5C 204.069,231.459 205.569,231.625 206.5,236C 206.139,238.449 205.472,240.782 204.5,243C 201.332,245.37 199.332,244.537 198.5,240.5C 196.717,241.348 196.217,242.681 197,244.5C 197.972,246.305 199.139,247.972 200.5,249.5C 198.314,250.221 196.147,250.887 194,251.5C 193.135,253.888 193.968,255.388 196.5,256C 191.378,257.714 191.211,259.881 196,262.5C 196.483,263.448 196.649,264.448 196.5,265.5C 193.112,264.835 192.112,265.835 193.5,268.5C 193.363,270.107 192.696,271.441 191.5,272.5C 191.002,271.397 190.669,270.397 190.5,269.5C 189.892,274.271 188.892,278.938 187.5,283.5C 188.074,285.059 188.74,286.559 189.5,288C 189.554,290.059 189.387,292.226 189,294.5C 190.356,295.38 191.856,295.714 193.5,295.5C 193.242,299.372 193.909,303.039 195.5,306.5C 195.5,307.167 195.167,307.5 194.5,307.5C 192.196,306.502 189.863,306.335 187.5,307C 187.307,305.355 187.14,303.521 187,301.5C 185.559,300.74 184.059,300.074 182.5,299.5C 181.708,301.465 181.041,303.465 180.5,305.5C 178.604,306.466 176.604,306.799 174.5,306.5C 174.5,307.5 174.5,308.5 174.5,309.5C 176.308,309.491 177.975,309.991 179.5,311C 178.253,312.458 178.253,313.958 179.5,315.5C 176.887,318.98 173.554,320.48 169.5,320C 171.891,321.309 171.891,322.309 169.5,323C 166.439,323.535 163.439,323.868 160.5,324C 158.436,322.982 158.102,321.649 159.5,320C 159.138,318.775 158.638,317.609 158,316.5C 157.606,320.279 155.773,321.279 152.5,319.5C 149.855,320.108 147.188,320.608 144.5,321C 143.809,322.067 143.309,323.234 143,324.5C 137.826,324.143 137.326,322.643 141.5,320C 140,319.167 138.833,318 138,316.5C 133.646,320.187 129.146,320.687 124.5,318C 122.597,317.226 120.93,317.56 119.5,319C 121.663,319.245 123.33,320.245 124.5,322C 123.57,322.991 122.404,323.491 121,323.5C 119,322.833 117,322.167 115,321.5C 112.932,322.67 111.099,322.504 109.5,321C 110.872,319.758 111.872,318.258 112.5,316.5C 114.972,315.104 117.638,314.27 120.5,314C 119.594,312.301 119.261,310.467 119.5,308.5C 117.654,308.778 116.32,308.111 115.5,306.5C 116.274,305.289 117.107,305.289 118,306.5C 118.374,305.584 118.874,304.75 119.5,304C 117.842,303.275 117.342,302.108 118,300.5C 119.011,301.337 120.178,301.67 121.5,301.5C 121.665,298.482 121.498,295.482 121,292.5C 120.5,292 120,291.5 119.5,291C 120.833,290.667 122.167,290.333 123.5,290C 122.257,288.846 121.257,287.512 120.5,286C 119.262,286.077 118.262,285.911 117.5,285.5C 118.624,284.086 119.624,282.586 120.5,281C 119.833,280.333 119.167,279.667 118.5,279C 116.1,278.814 113.766,278.314 111.5,277.5C 112.689,276.571 114.022,276.238 115.5,276.5C 115.656,272.865 116.822,272.532 119,275.5C 119.839,274.376 121.006,273.709 122.5,273.5C 127.723,275.574 128.723,274.407 125.5,270C 124.451,269.508 123.451,269.674 122.5,270.5C 122.167,269.833 121.833,269.167 121.5,268.5C 122.135,267.034 122.969,265.7 124,264.5C 125.183,265.731 126.349,265.731 127.5,264.5C 126.524,262.877 127.024,261.543 129,260.5C 129.333,260.833 129.667,261.167 130,261.5C 131.171,260.107 132.671,259.273 134.5,259C 133.04,256.928 131.374,256.094 129.5,256.5C 130.863,254.326 131.197,252.159 130.5,250C 131.448,249.517 132.448,249.351 133.5,249.5C 133.671,246.512 132.338,244.512 129.5,243.5C 130.557,243.094 131.891,243.094 133.5,243.5C 132.516,240.035 130.85,236.869 128.5,234C 129.791,231.91 129.124,230.576 126.5,230C 132.767,229.74 133.6,227.907 129,224.5C 128.333,223.833 128.333,223.167 129,222.5C 131.243,221.029 133.743,220.029 136.5,219.5C 133.644,217.478 131.311,214.978 129.5,212C 130.579,211.044 131.745,210.211 133,209.5C 133.673,205.16 135.173,201.16 137.5,197.5C 135.722,193.836 136.722,191.169 140.5,189.5C 139.737,188.281 138.737,187.281 137.5,186.5C 138.729,185.719 140.062,185.219 141.5,185C 140.715,182.958 141.048,180.958 142.5,179C 139.63,174.896 140.796,172.396 146,171.5C 146.93,169.457 147.43,167.624 147.5,166C 150.688,165.551 153.355,164.218 155.5,162C 152.961,160.901 152.295,159.234 153.5,157C 152.833,156.667 152.167,156.333 151.5,156C 153.394,154.921 153.727,153.587 152.5,152C 153.931,151.535 155.097,150.701 156,149.5C 159.003,152.106 159.836,151.44 158.5,147.5C 159.946,145.382 160.613,143.049 160.5,140.5C 162.144,140.286 163.644,140.62 165,141.5C 165.066,137.749 165.899,134.249 167.5,131C 165.601,128.196 162.934,127.03 159.5,127.5C 158.355,130.465 157.189,133.465 156,136.5C 155.586,136.043 155.086,135.709 154.5,135.5C 152.664,136.919 150.664,138.086 148.5,139C 149.727,141.27 151.394,143.103 153.5,144.5C 151.119,146.522 148.453,146.855 145.5,145.5C 144.605,148.738 144.605,151.905 145.5,155C 143.963,156.11 143.297,157.61 143.5,159.5C 142.5,159.5 141.5,159.5 140.5,159.5C 140.662,161.527 140.495,163.527 140,165.5C 139.667,165.167 139.333,164.833 139,164.5C 137.647,165.685 136.48,167.019 135.5,168.5C 134.494,168.062 134.494,167.396 135.5,166.5C 134.277,165.386 132.944,165.219 131.5,166C 132.329,168.577 131.495,170.744 129,172.5C 128.292,171.619 127.458,170.953 126.5,170.5C 130.41,159.335 134.91,148.335 140,137.5C 152.329,121.492 165.829,106.325 180.5,92C 186.972,86.2638 193.972,81.2638 201.5,77C 207.539,69.2936 214.539,62.627 222.5,57C 235.724,51.7212 248.391,45.3878 260.5,38C 270.283,33.7768 280.283,30.1101 290.5,27C 306.024,22.9524 321.358,18.2857 336.5,13C 344.696,12.1443 352.696,10.4776 360.5,8C 376.851,6.40007 393.184,6.7334 409.5,9C 416.682,9.94914 423.349,12.2825 429.5,16C 435.531,22.3655 441.864,28.3655 448.5,34C 452.075,37.5164 456.075,38.183 460.5,36C 464.938,31.5608 469.938,27.8941 475.5,25C 484.25,22.8953 492.916,23.2287 501.5,26C 509.51,29.0063 517.51,32.0063 525.5,35C 529.152,37.2739 530.985,40.4406 531,44.5C 529.951,43.4829 528.784,43.3162 527.5,44C 532.503,48.8222 537.836,53.1555 543.5,57C 551.467,65.9768 560.301,73.8101 570,80.5C 573.033,85.1055 574.033,90.1055 573,95.5C 571.844,94.0072 571.01,94.1739 570.5,96C 574.133,105.436 577.633,114.936 581,124.5C 590.126,136.017 596.292,149.017 599.5,163.5C 600.675,163.281 601.675,163.614 602.5,164.5C 604.616,168.96 606.116,173.627 607,178.5C 607.333,186.833 607.667,195.167 608,203.5C 612.11,215.577 614.11,227.91 614,240.5C 618.758,256.282 622.758,272.282 626,288.5C 627.051,303.63 626.218,318.63 623.5,333.5C 621.948,336.324 620.948,339.324 620.5,342.5C 619.127,342.657 617.793,342.49 616.5,342C 615.063,339.275 613.063,337.108 610.5,335.5C 609.745,330.66 608.412,325.994 606.5,321.5C 599.824,314.663 592.157,309.163 583.5,305C 575.421,302.751 567.255,300.918 559,299.5C 551.517,300.21 544.017,300.71 536.5,301C 535.051,302.117 533.384,302.784 531.5,303C 524.802,303.757 518.136,303.591 511.5,302.5C 502.867,304.8 494.201,305.3 485.5,304C 483.848,302.53 482.848,300.697 482.5,298.5C 484.27,289.396 489.603,284.063 498.5,282.5C 498.5,281.5 498.5,280.5 498.5,279.5C 501.271,279.579 503.937,279.079 506.5,278C 521.261,270.484 536.928,267.817 553.5,270C 557.66,270.167 561.493,271.334 565,273.5C 562.371,257.768 559.371,242.101 556,226.5C 550.833,208.826 545.666,191.159 540.5,173.5 Z M 460.5,48.5 C 462.656,48.8718 462.656,49.8718 460.5,51.5C 459.913,50.7666 459.913,49.7666 460.5,48.5 Z M 454.5,53.5 C 456.144,53.7135 457.644,53.3802 459,52.5C 460.506,54.4323 459.84,55.7657 457,56.5C 455.251,56.2517 454.418,55.2517 454.5,53.5 Z M 409.5,59.5 C 400.934,57.826 392.268,56.6593 383.5,56C 390.5,55.3333 397.5,55.3333 404.5,56C 406.584,56.6972 408.251,57.8639 409.5,59.5 Z M 375.5,56.5 C 378.999,56.259 379.332,57.0924 376.5,59C 373.5,59.6667 370.5,59.6667 367.5,59C 370.379,58.454 373.046,57.6206 375.5,56.5 Z M 412.5,61.5 C 415.976,60.3567 419.642,60.1901 423.5,61C 419.911,62.6883 416.244,62.8549 412.5,61.5 Z M 348.5,61.5 C 349.873,61.3433 351.207,61.51 352.5,62C 349.048,63.2257 345.715,64.7257 342.5,66.5C 342.167,66.1667 341.833,65.8333 341.5,65.5C 343.784,63.8643 346.118,62.5309 348.5,61.5 Z M 276.5,267.5 C 270.314,272.451 263.314,274.784 255.5,274.5C 256.213,272.224 256.713,269.891 257,267.5C 259.467,271.559 262.967,272.559 267.5,270.5C 268.386,269.675 268.719,268.675 268.5,267.5C 271.167,267.5 273.833,267.5 276.5,267.5 Z M 216.5,258.5 C 217.208,262.102 216.708,265.769 215,269.5C 212.824,275.331 209.824,280.664 206,285.5C 203.1,291.297 200.766,297.297 199,303.5C 198.927,300.842 199.26,298.176 200,295.5C 202.094,291.551 203.594,287.384 204.5,283C 211.023,276.121 215.023,267.954 216.5,258.5 Z M 221.5,248.5 C 221.949,250.977 221.283,252.977 219.5,254.5C 219.167,254.333 218.833,254.167 218.5,254C 218.989,251.791 219.989,249.958 221.5,248.5 Z M 261.5,255.5 C 262.226,252.821 263.059,250.154 264,247.5C 264.652,250.709 263.818,253.375 261.5,255.5 Z M 225.5,239.5 C 225.691,243.288 224.358,246.288 221.5,248.5C 221.326,244.64 222.659,241.64 225.5,239.5 Z M 269.5,227.5 C 270.043,227.56 270.376,227.893 270.5,228.5C 269.915,231.503 269.248,234.503 268.5,237.5C 267.518,234.074 267.851,230.741 269.5,227.5 Z M 231.5,226.5 C 230.662,226.842 230.328,227.508 230.5,228.5C 229.379,230.954 228.546,233.621 228,236.5C 227.623,237.942 226.79,238.942 225.5,239.5C 226.395,234.845 227.729,230.345 229.5,226C 230.437,225.308 231.103,225.475 231.5,226.5 Z M 281.5,186.5 C 282.124,186.917 282.457,187.584 282.5,188.5C 280.503,196.773 278.503,205.106 276.5,213.5C 276.833,214.167 277.167,214.833 277.5,215.5C 275.244,219.083 273.078,222.75 271,226.5C 271.393,220.517 272.059,214.517 273,208.5C 276.33,201.339 279.164,194.006 281.5,186.5 Z M 303.5,293.5 C 301.478,295.693 298.811,296.693 295.5,296.5C 297.902,295.007 300.569,294.007 303.5,293.5 Z M 195.5,306.5 C 196.376,306.369 197.043,306.702 197.5,307.5C 196.811,309.522 195.478,310.856 193.5,311.5C 193.433,310.041 193.766,308.708 194.5,307.5C 195.167,307.5 195.5,307.167 195.5,306.5 Z M 193.5,311.5 C 193.5,312.833 193.5,314.167 193.5,315.5C 192.167,315.5 190.833,315.5 189.5,315.5C 190.5,313.833 191.833,312.5 193.5,311.5 Z M 189.5,315.5 C 188.246,319.482 185.579,322.149 181.5,323.5C 181.281,322.325 181.614,321.325 182.5,320.5C 185.13,319.196 187.463,317.53 189.5,315.5 Z"/></g>
<g><path style="opacity:0.996" fill="#3B82F6" d="M 540.5,173.5 C 538.448,166.404 534.615,160.404 529,155.5C 527.774,152.048 526.274,148.715 524.5,145.5C 521.336,143.417 518.003,141.584 514.5,140C 502.915,137.471 491.582,134.138 480.5,130C 465.198,128.808 449.865,128.141 434.5,128C 422.973,127.107 411.473,125.94 400,124.5C 387.692,125.094 375.525,126.594 363.5,129C 360.11,130.125 356.943,131.625 354,133.5C 347.743,142.346 341.243,151.012 334.5,159.5C 331.685,168.782 328.185,177.782 324,186.5C 321.081,192.677 317.414,198.344 313,203.5C 307.079,215.603 301.745,227.937 297,240.5C 293.333,246.5 289.667,252.5 286,258.5C 283.305,260.694 280.472,262.694 277.5,264.5C 276.614,265.325 276.281,266.325 276.5,267.5C 299.026,266.012 321.693,265.512 344.5,266C 357.496,267.709 370.83,269.375 384.5,271C 394.121,272.542 403.121,275.875 411.5,281C 415.368,287.394 413.702,291.227 406.5,292.5C 406.5,293.833 406.5,295.167 406.5,296.5C 401.439,297.335 397.105,296.001 393.5,292.5C 386.614,289.472 379.447,287.472 372,286.5C 365.534,287.4 359.034,287.733 352.5,287.5C 349.713,286.523 346.713,286.19 343.5,286.5C 329.945,284.793 317.278,287.127 305.5,293.5C 304.833,293.5 304.167,293.5 303.5,293.5C 300.569,294.007 297.902,295.007 295.5,296.5C 295.167,296.5 294.833,296.5 294.5,296.5C 287.537,296.43 281.204,298.263 275.5,302C 268.522,302.957 261.522,303.791 254.5,304.5C 251.197,309.441 248.697,314.774 247,320.5C 245.792,328.665 243.958,336.665 241.5,344.5C 239.876,344.36 238.71,345.027 238,346.5C 233.554,359.391 228.554,372.057 223,384.5C 222.101,390.728 220.934,396.894 219.5,403C 219.748,404.716 220.415,406.216 221.5,407.5C 219.935,410.953 218.935,414.619 218.5,418.5C 219.431,438.892 224.431,458.225 233.5,476.5C 238.103,480.029 240.936,484.696 242,490.5C 254.707,505.914 263.707,523.247 269,542.5C 271.683,544.038 274.183,545.705 276.5,547.5C 277.234,548.708 277.567,550.041 277.5,551.5C 273.92,550.923 270.92,551.923 268.5,554.5C 266.604,555.466 264.604,555.799 262.5,555.5C 262.286,553.856 262.62,552.356 263.5,551C 259.634,550.029 256.301,548.196 253.5,545.5C 252.878,541.874 252.711,538.207 253,534.5C 249.538,534.017 249.038,532.85 251.5,531C 250.54,529.581 249.707,528.081 249,526.5C 246.43,525.991 244.097,524.991 242,523.5C 241.999,520.313 241.166,517.48 239.5,515C 240.357,514.311 241.023,513.478 241.5,512.5C 240.948,510.997 240.948,509.331 241.5,507.5C 240.167,507.5 238.833,507.5 237.5,507.5C 237.261,505.533 237.594,503.699 238.5,502C 237.026,500.684 235.359,499.684 233.5,499C 234.609,497.187 233.942,496.354 231.5,496.5C 231.391,493.466 230.057,492.466 227.5,493.5C 224.311,490.433 220.644,489.433 216.5,490.5C 215.097,495.215 213.097,495.548 210.5,491.5C 212.173,489.477 212.84,487.144 212.5,484.5C 210.669,485.052 209.003,485.052 207.5,484.5C 206.597,486.857 204.93,488.357 202.5,489C 203.257,490.512 204.257,491.846 205.5,493C 205.167,493.333 204.833,493.667 204.5,494C 206.256,494.202 207.922,494.702 209.5,495.5C 206.867,497.368 203.534,498.368 199.5,498.5C 199.33,499.822 199.663,500.989 200.5,502C 202.878,502.511 205.212,503.178 207.5,504C 206.667,504.833 205.833,505.667 205,506.5C 202.205,504.497 199.038,503.163 195.5,502.5C 192.717,498.755 188.55,497.755 183,499.5C 181.347,499.18 180.347,498.18 180,496.5C 179.586,496.957 179.086,497.291 178.5,497.5C 177.348,494.894 177.182,492.227 178,489.5C 178.75,488.874 179.584,488.374 180.5,488C 179.02,485.765 179.353,483.932 181.5,482.5C 187.093,484.364 192.759,486.03 198.5,487.5C 201.447,471.285 198.947,455.952 191,441.5C 190.427,424.474 190.927,407.474 192.5,390.5C 192.399,386.132 192.065,381.799 191.5,377.5C 176.817,376.388 162.15,376.388 147.5,377.5C 147.889,405.842 153.222,433.175 163.5,459.5C 163.344,463.135 162.178,463.468 160,460.5C 159.833,461 159.667,461.5 159.5,462C 161.019,464.578 161.852,467.411 162,470.5C 163.945,471.863 166.112,472.697 168.5,473C 167.376,473.249 166.376,473.749 165.5,474.5C 167.803,478.27 170.469,481.77 173.5,485C 172.318,486.678 171.152,486.512 170,484.5C 165.625,485.691 161.458,484.525 157.5,481C 161.041,479.929 161.708,478.263 159.5,476C 160.167,475.667 160.833,475.333 161.5,475C 160.167,474.333 158.833,473.667 157.5,473C 158.869,470.761 158.369,468.927 156,467.5C 154.333,468.833 152.667,468.833 151,467.5C 150.505,465.527 150.338,463.527 150.5,461.5C 148.25,461.181 146.25,461.681 144.5,463C 147.596,466.542 146.929,469.042 142.5,470.5C 144.85,471.774 144.683,473.107 142,474.5C 141.751,473.376 141.251,472.376 140.5,471.5C 139.289,472.274 139.289,473.107 140.5,474C 139.552,474.483 138.552,474.649 137.5,474.5C 137.5,472.833 137.5,471.167 137.5,469.5C 135.051,468.943 132.718,468.943 130.5,469.5C 131.641,470.425 131.641,471.259 130.5,472C 131.448,472.483 132.448,472.649 133.5,472.5C 133.666,481.173 133.5,489.84 133,498.5C 132.333,497.833 131.667,497.167 131,496.5C 130.333,502.167 130.333,507.833 131,513.5C 131.374,514.416 131.874,515.25 132.5,516C 131.594,517.699 131.261,519.533 131.5,521.5C 132.833,521.5 134.167,521.5 135.5,521.5C 135.351,522.552 135.517,523.552 136,524.5C 136.392,521.373 137.225,518.373 138.5,515.5C 136.678,513.99 134.678,512.657 132.5,511.5C 134.006,510.253 135.506,510.253 137,511.5C 137.667,509.5 138.333,507.5 139,505.5C 139.333,507.167 139.667,508.833 140,510.5C 141.147,509.542 142.147,509.875 143,511.5C 144.54,508.279 144.707,504.946 143.5,501.5C 139.44,502.152 137.44,500.485 137.5,496.5C 142.118,497.691 144.618,496.025 145,491.5C 146.045,498.125 146.711,504.792 147,511.5C 150.054,513.123 149.554,513.79 145.5,513.5C 145.344,516.066 145.678,518.566 146.5,521C 144.885,522.637 143.551,524.471 142.5,526.5C 143.494,528.486 144.827,529.986 146.5,531C 146.211,539.128 145.877,547.295 145.5,555.5C 143.25,555.181 141.25,555.681 139.5,557C 139.374,559.234 139.707,561.568 140.5,564C 138.875,564.853 138.542,565.853 139.5,567C 138.214,569.022 137.214,571.189 136.5,573.5C 139.303,577.007 139.969,580.841 138.5,585C 138.759,586.261 139.426,587.261 140.5,588C 139.833,588.333 139.167,588.667 138.5,589C 140.345,590.128 142.345,590.628 144.5,590.5C 144.281,589.325 144.614,588.325 145.5,587.5C 147.568,589.945 149.735,592.278 152,594.5C 154.618,593.262 157.285,593.262 160,594.5C 161.563,593.898 161.396,593.065 159.5,592C 162.168,591.433 164.834,590.933 167.5,590.5C 167.584,595.467 168.918,595.8 171.5,591.5C 170.189,590.742 169.689,589.742 170,588.5C 171.41,587.213 172.91,586.046 174.5,585C 173.391,583.187 174.058,582.354 176.5,582.5C 176.33,581.178 176.663,580.011 177.5,579C 179.256,578.798 180.922,578.298 182.5,577.5C 181.833,576.833 181.167,576.167 180.5,575.5C 183.093,571.801 183.76,567.801 182.5,563.5C 183.729,562.719 185.062,562.219 186.5,562C 186.077,559.183 185.744,556.35 185.5,553.5C 189.656,548.503 190.322,543.17 187.5,537.5C 188.953,535.533 189.953,533.367 190.5,531C 189.826,529.249 189.493,527.583 189.5,526C 191.833,525.667 194.167,525.333 196.5,525C 197.113,522.853 197.779,520.686 198.5,518.5C 201.551,519.922 204.385,519.589 207,517.5C 209.817,518.416 210.983,520.083 210.5,522.5C 211.689,523.429 213.022,523.762 214.5,523.5C 214.003,525.597 213.67,527.43 213.5,529C 215.64,531.14 217.806,533.306 220,535.5C 220.502,532.487 221.002,529.487 221.5,526.5C 226.031,525.886 228.197,527.886 228,532.5C 229.343,531.786 230.676,532.12 232,533.5C 232.617,534.449 232.451,535.282 231.5,536C 226.638,536.689 226.638,537.856 231.5,539.5C 231.704,542.518 232.037,545.518 232.5,548.5C 234.773,549.735 236.606,549.402 238,547.5C 240.153,551.134 242.32,554.801 244.5,558.5C 243.624,559.251 242.624,559.751 241.5,560C 243.101,560.273 244.601,560.773 246,561.5C 246.894,563.979 247.227,566.312 247,568.5C 249.168,570.455 251.502,571.121 254,570.5C 254.667,571.5 254.667,572.5 254,573.5C 252.167,574.667 250.667,576.167 249.5,578C 250.793,578.49 252.127,578.657 253.5,578.5C 253.5,579.833 253.5,581.167 253.5,582.5C 255.57,582.449 257.403,583.115 259,584.5C 260.653,584.18 261.653,583.18 262,581.5C 262.45,583.519 263.283,585.352 264.5,587C 263.833,587.667 263.167,588.333 262.5,589C 263.95,589.117 265.45,588.95 267,588.5C 272.383,590.025 272.55,591.525 267.5,593C 265.903,595.644 264.069,595.477 262,592.5C 261.506,594.134 261.34,595.801 261.5,597.5C 260.5,597.5 259.5,597.5 258.5,597.5C 258.5,598.5 258.5,599.5 258.5,600.5C 261.671,601.501 264.671,601.501 267.5,600.5C 268.478,600.977 269.311,601.643 270,602.5C 270.249,601.376 270.749,600.376 271.5,599.5C 273.468,601.454 274.802,603.788 275.5,606.5C 273.801,606.34 272.134,606.506 270.5,607C 269.18,609.215 269.847,610.715 272.5,611.5C 275.405,610.187 278.405,609.687 281.5,610C 279.854,611.555 279.521,613.221 280.5,615C 274.369,616.266 268.702,615.266 263.5,612C 263.957,611.586 264.291,611.086 264.5,610.5C 260.579,609.341 258.579,606.674 258.5,602.5C 255.206,599.614 252.039,597.28 249,595.5C 249.263,594.049 249.096,592.716 248.5,591.5C 240.839,591.016 235.839,587.182 233.5,580C 236.265,579.579 237.432,578.079 237,575.5C 234.443,576.646 233.11,575.646 233,572.5C 232,573.5 231,574.5 230,575.5C 227.953,572.234 225.787,571.901 223.5,574.5C 222.163,571.257 219.996,568.59 217,566.5C 216.441,562.814 215.774,559.147 215,555.5C 212.079,550.659 209.412,545.659 207,540.5C 204.765,560.451 200.765,580.118 195,599.5C 194.499,605.507 193.999,611.507 193.5,617.5C 175.479,617.473 157.812,614.973 140.5,610C 127.01,608.437 113.677,606.437 100.5,604C 95.4256,600.087 89.9256,596.92 84,594.5C 83.1048,591.534 83.6048,588.867 85.5,586.5C 91.7824,582.525 98.4491,579.359 105.5,577C 110.549,571.073 115.716,565.239 121,559.5C 128.933,541.026 131.766,521.693 129.5,501.5C 130.004,484.559 129.004,467.726 126.5,451C 128.436,440.89 127.602,431.057 124,421.5C 119.167,416.667 114.333,411.833 109.5,407C 105.296,406.203 101.629,404.369 98.5,401.5C 94.5609,404.121 90.3942,406.454 86,408.5C 83.6793,408.091 81.5126,407.257 79.5,406C 74.8804,400.592 70.3804,395.092 66,389.5C 65.4926,388.004 65.9926,386.837 67.5,386C 65.7569,381.527 64.0902,377.027 62.5,372.5C 57.0506,368.893 51.7173,365.059 46.5,361C 49.0589,356.111 53.0589,353.111 58.5,352C 63.6781,346.823 69.1781,341.99 75,337.5C 89.1374,319.01 98.8041,298.343 104,275.5C 104.333,268.5 104.667,261.5 105,254.5C 106.848,241.478 108.848,228.478 111,215.5C 116.377,200.571 121.544,185.571 126.5,170.5C 127.458,170.953 128.292,171.619 129,172.5C 131.495,170.744 132.329,168.577 131.5,166C 132.944,165.219 134.277,165.386 135.5,166.5C 134.494,167.396 134.494,168.062 135.5,168.5C 136.48,167.019 137.647,165.685 139,164.5C 139.333,164.833 139.667,165.167 140,165.5C 140.495,163.527 140.662,161.527 140.5,159.5C 141.5,159.5 142.5,159.5 143.5,159.5C 143.297,157.61 143.963,156.11 145.5,155C 144.605,151.905 144.605,148.738 145.5,145.5C 148.453,146.855 151.119,146.522 153.5,144.5C 151.394,143.103 149.727,141.27 148.5,139C 150.664,138.086 152.664,136.919 154.5,135.5C 155.086,135.709 155.586,136.043 156,136.5C 157.189,133.465 158.355,130.465 159.5,127.5C 162.934,127.03 165.601,128.196 167.5,131C 165.899,134.249 165.066,137.749 165,141.5C 163.644,140.62 162.144,140.286 160.5,140.5C 160.613,143.049 159.946,145.382 158.5,147.5C 159.836,151.44 159.003,152.106 156,149.5C 155.097,150.701 153.931,151.535 152.5,152C 153.727,153.587 153.394,154.921 151.5,156C 152.167,156.333 152.833,156.667 153.5,157C 152.295,159.234 152.961,160.901 155.5,162C 153.355,164.218 150.688,165.551 147.5,166C 147.43,167.624 146.93,169.457 146,171.5C 140.796,172.396 139.63,174.896 142.5,179C 141.048,180.958 140.715,182.958 141.5,185C 140.062,185.219 138.729,185.719 137.5,186.5C 138.737,187.281 139.737,188.281 140.5,189.5C 136.722,191.169 135.722,193.836 137.5,197.5C 135.173,201.16 133.673,205.16 133,209.5C 131.745,210.211 130.579,211.044 129.5,212C 131.311,214.978 133.644,217.478 136.5,219.5C 133.743,220.029 131.243,221.029 129,222.5C 128.333,223.167 128.333,223.833 129,224.5C 133.6,227.907 132.767,229.74 126.5,230C 129.124,230.576 129.791,231.91 128.5,234C 130.85,236.869 132.516,240.035 133.5,243.5C 131.891,243.094 130.557,243.094 129.5,243.5C 132.338,244.512 133.671,246.512 133.5,249.5C 132.448,249.351 131.448,249.517 130.5,250C 131.197,252.159 130.863,254.326 129.5,256.5C 131.374,256.094 133.04,256.928 134.5,259C 132.671,259.273 131.171,260.107 130,261.5C 129.667,261.167 129.333,260.833 129,260.5C 127.024,261.543 126.524,262.877 127.5,264.5C 126.349,265.731 125.183,265.731 124,264.5C 122.969,265.7 122.135,267.034 121.5,268.5C 121.833,269.167 122.167,269.833 122.5,270.5C 123.451,269.674 124.451,269.508 125.5,270C 128.723,274.407 127.723,275.574 122.5,273.5C 121.006,273.709 119.839,274.376 119,275.5C 116.822,272.532 115.656,272.865 115.5,276.5C 114.022,276.238 112.689,276.571 111.5,277.5C 113.766,278.314 116.1,278.814 118.5,279C 119.167,279.667 119.833,280.333 120.5,281C 119.624,282.586 118.624,284.086 117.5,285.5C 118.262,285.911 119.262,286.077 120.5,286C 121.257,287.512 122.257,288.846 123.5,290C 122.167,290.333 120.833,290.667 119.5,291C 120,291.5 120.5,292 121,292.5C 121.498,295.482 121.665,298.482 121.5,301.5C 120.178,301.67 119.011,301.337 118,300.5C 117.342,302.108 117.842,303.275 119.5,304C 118.874,304.75 118.374,305.584 118,306.5C 117.107,305.289 116.274,305.289 115.5,306.5C 116.32,308.111 117.654,308.778 119.5,308.5C 119.261,310.467 119.594,312.301 120.5,314C 117.638,314.27 114.972,315.104 112.5,316.5C 111.872,318.258 110.872,319.758 109.5,321C 111.099,322.504 112.932,322.67 115,321.5C 117,322.167 119,322.833 121,323.5C 122.404,323.491 123.57,322.991 124.5,322C 123.33,320.245 121.663,319.245 119.5,319C 120.93,317.56 122.597,317.226 124.5,318C 129.146,320.687 133.646,320.187 138,316.5C 138.833,318 140,319.167 141.5,320C 137.326,322.643 137.826,324.143 143,324.5C 143.309,323.234 143.809,322.067 144.5,321C 147.188,320.608 149.855,320.108 152.5,319.5C 155.773,321.279 157.606,320.279 158,316.5C 158.638,317.609 159.138,318.775 159.5,320C 158.102,321.649 158.436,322.982 160.5,324C 163.439,323.868 166.439,323.535 169.5,323C 171.891,322.309 171.891,321.309 169.5,320C 173.554,320.48 176.887,318.98 179.5,315.5C 178.253,313.958 178.253,312.458 179.5,311C 177.975,309.991 176.308,309.491 174.5,309.5C 174.5,308.5 174.5,307.5 174.5,306.5C 176.604,306.799 178.604,306.466 180.5,305.5C 181.041,303.465 181.708,301.465 182.5,299.5C 184.059,300.074 185.559,300.74 187,301.5C 187.14,303.521 187.307,305.355 187.5,307C 189.863,306.335 192.196,306.502 194.5,307.5C 193.766,308.708 193.433,310.041 193.5,311.5C 195.478,310.856 196.811,309.522 197.5,307.5C 197.043,306.702 196.376,306.369 195.5,306.5C 193.909,303.039 193.242,299.372 193.5,295.5C 191.856,295.714 190.356,295.38 189,294.5C 189.387,292.226 189.554,290.059 189.5,288C 188.74,286.559 188.074,285.059 187.5,283.5C 188.892,278.938 189.892,274.271 190.5,269.5C 190.669,270.397 191.002,271.397 191.5,272.5C 192.696,271.441 193.363,270.107 193.5,268.5C 192.112,265.835 193.112,264.835 196.5,265.5C 196.649,264.448 196.483,263.448 196,262.5C 191.211,259.881 191.378,257.714 196.5,256C 193.968,255.388 193.135,253.888 194,251.5C 196.147,250.887 198.314,250.221 200.5,249.5C 199.139,247.972 197.972,246.305 197,244.5C 196.217,242.681 196.717,241.348 198.5,240.5C 199.332,244.537 201.332,245.37 204.5,243C 205.472,240.782 206.139,238.449 206.5,236C 205.569,231.625 204.069,231.459 202,235.5C 199.825,232.332 200.659,230.165 204.5,229C 202.085,227.535 201.085,225.368 201.5,222.5C 205.942,220.68 210.275,219.346 214.5,218.5C 215.244,217.009 215.91,215.509 216.5,214C 213.724,212.221 214.057,211.221 217.5,211C 218.289,207.903 219.456,207.736 221,210.5C 223.096,209.285 222.929,208.451 220.5,208C 223.063,206.985 224.396,205.485 224.5,203.5C 225.799,204.09 226.632,205.09 227,206.5C 227.414,206.043 227.914,205.709 228.5,205.5C 229.167,206.833 229.833,208.167 230.5,209.5C 232.781,206.772 235.781,205.772 239.5,206.5C 239.5,207.5 239.5,208.5 239.5,209.5C 234.938,209.279 234.272,210.779 237.5,214C 236.407,216.443 235.407,218.943 234.5,221.5C 235.729,222.281 237.062,222.781 238.5,223C 236.071,224.02 233.737,225.186 231.5,226.5C 231.103,225.475 230.437,225.308 229.5,226C 227.729,230.345 226.395,234.845 225.5,239.5C 226.79,238.942 227.623,237.942 228,236.5C 228.546,233.621 229.379,230.954 230.5,228.5C 230.833,230.5 231.167,232.5 231.5,234.5C 235.998,232.424 240.665,230.591 245.5,229C 245.501,227.601 245.835,226.101 246.5,224.5C 245.975,223.808 245.308,223.308 244.5,223C 246.285,221.837 248.285,221.17 250.5,221C 248.833,220.667 247.167,220.333 245.5,220C 244.624,217.624 242.958,216.124 240.5,215.5C 241.154,213.885 241.654,212.218 242,210.5C 246.787,212.62 250.287,216.12 252.5,221C 253.448,221.483 254.448,221.649 255.5,221.5C 255.351,222.552 255.517,223.552 256,224.5C 258.466,227.24 259.633,226.907 259.5,223.5C 257.646,220.108 256.646,216.441 256.5,212.5C 255.325,212.719 254.325,212.386 253.5,211.5C 253.467,210.011 252.967,208.678 252,207.5C 251.586,207.957 251.086,208.291 250.5,208.5C 249.101,206.897 247.435,205.563 245.5,204.5C 245.977,203.522 246.643,202.689 247.5,202C 249.888,201.697 252.055,200.863 254,199.5C 255.77,201.418 257.937,201.918 260.5,201C 258.998,200.417 257.665,199.584 256.5,198.5C 257.414,196.371 258.414,194.204 259.5,192C 258.902,188.963 258.902,186.13 259.5,183.5C 259.833,182.833 260.167,182.167 260.5,181.5C 262.115,182.154 263.782,182.654 265.5,183C 266.126,183.75 266.626,184.584 267,185.5C 271.762,183.832 272.929,180.998 270.5,177C 271.573,175.584 271.573,174.25 270.5,173C 272.833,172.667 275.167,172.333 277.5,172C 276.663,170.989 276.33,169.822 276.5,168.5C 270.019,167.184 270.352,166.351 277.5,166C 278.949,164.883 280.616,164.216 282.5,164C 282.043,163.586 281.709,163.086 281.5,162.5C 283.686,161.779 285.853,161.113 288,160.5C 290.22,164.595 290.887,168.928 290,173.5C 288.223,176.059 286.723,178.726 285.5,181.5C 284.167,182.167 284.167,182.833 285.5,183.5C 286.268,182.737 286.768,181.737 287,180.5C 287.925,181.047 288.758,181.713 289.5,182.5C 287.089,187.841 288.755,190.175 294.5,189.5C 294.297,187.61 294.963,186.11 296.5,185C 299.029,182.971 301.696,181.138 304.5,179.5C 304.192,178.692 303.692,178.025 303,177.5C 301.274,178.576 299.441,178.743 297.5,178C 299.845,175.798 302.511,174.298 305.5,173.5C 305.336,170.813 305.503,168.146 306,165.5C 308.333,164.123 310.833,163.123 313.5,162.5C 314.354,161.478 315.354,160.645 316.5,160C 315.597,155.559 317.597,153.226 322.5,153C 321.5,152.167 320.5,151.333 319.5,150.5C 321.505,149.663 322.505,148.163 322.5,146C 322.057,144.175 321.723,142.342 321.5,140.5C 324.14,140.046 326.473,138.879 328.5,137C 330.394,135.921 330.727,134.587 329.5,133C 331.329,132.727 332.829,131.893 334,130.5C 335.231,124.951 338.731,121.784 344.5,121C 345.313,119.686 346.313,118.519 347.5,117.5C 346.975,116.808 346.308,116.308 345.5,116C 346.904,114.663 348.404,113.497 350,112.5C 352.391,115.144 354.725,115.144 357,112.5C 359.026,113.019 361.026,113.353 363,113.5C 364.223,111.015 365.723,110.848 367.5,113C 363.73,115.863 363.897,118.03 368,119.5C 369.208,117.521 370.041,115.355 370.5,113C 369.591,111.211 369.424,109.377 370,107.5C 372.606,108.599 375.106,109.932 377.5,111.5C 380.308,110.03 383.308,109.197 386.5,109C 388.14,106.946 389.806,106.613 391.5,108C 390.055,109.71 389.222,111.544 389,113.5C 392.073,114.617 395.24,114.784 398.5,114C 392.786,110.02 393.286,107.52 400,106.5C 403.541,107.029 407.041,107.696 410.5,108.5C 411.992,106.834 413.825,105.834 416,105.5C 419.063,105.935 419.23,106.768 416.5,108C 420.5,108.667 420.5,109.333 416.5,110C 418.353,111.669 420.353,111.835 422.5,110.5C 420.834,107.823 421.501,106.156 424.5,105.5C 428.418,105.774 432.084,106.774 435.5,108.5C 438.731,108.102 441.731,107.102 444.5,105.5C 450.058,106.924 455.391,106.258 460.5,103.5C 462.662,106.189 464.329,105.855 465.5,102.5C 466.689,101.571 468.022,101.238 469.5,101.5C 469.5,103.5 469.5,105.5 469.5,107.5C 470.873,107.657 472.207,107.49 473.5,107C 472.167,106 472.167,105 473.5,104C 475.473,103.505 477.473,103.338 479.5,103.5C 478.265,105.773 478.598,107.606 480.5,109C 477.972,109.669 477.972,110.502 480.5,111.5C 484.788,105.237 489.622,104.903 495,110.5C 494.872,108.871 495.872,107.538 498,106.5C 499.059,106.63 499.892,107.13 500.5,108C 499.007,109.156 499.174,109.99 501,110.5C 502.892,107.61 503.725,107.944 503.5,111.5C 508.658,112.484 508.658,113.317 503.5,114C 505.887,114.976 507.054,116.809 507,119.5C 508.194,117.377 508.86,115.043 509,112.5C 509.374,113.416 509.874,114.25 510.5,115C 513.5,115.667 516.5,115.667 519.5,115C 520.155,113.513 521.155,112.347 522.5,111.5C 522.833,112 523.167,112.5 523.5,113C 522.391,115.047 521.724,117.213 521.5,119.5C 525.72,119.427 528.054,121.427 528.5,125.5C 527.167,125.5 525.833,125.5 524.5,125.5C 524.5,127.167 524.5,128.833 524.5,130.5C 526.527,130.338 528.527,130.505 530.5,131C 530.094,132.803 530.594,134.636 532,136.5C 532.519,135.484 533.353,134.818 534.5,134.5C 536.5,135 538.5,135.5 540.5,136C 540.167,136.333 539.833,136.667 539.5,137C 541.615,137.424 542.448,138.591 542,140.5C 541.035,138.74 539.868,138.406 538.5,139.5C 541.027,141.854 543.194,144.521 545,147.5C 545.333,146.167 545.667,144.833 546,143.5C 548.326,145.047 549.493,146.881 549.5,149C 551.813,149.662 554.146,150.162 556.5,150.5C 556.915,154.375 556.415,158.042 555,161.5C 553.92,158.386 553.754,155.386 554.5,152.5C 553.178,152.67 552.011,152.337 551,151.5C 549.632,154.738 549.299,158.072 550,161.5C 551.143,164.915 552.81,165.249 555,162.5C 556.057,164.219 556.89,166.053 557.5,168C 557,168.5 556.5,169 556,169.5C 555.411,167.137 553.911,166.137 551.5,166.5C 551.768,169.119 551.435,171.619 550.5,174C 552.464,174.624 554.131,174.124 555.5,172.5C 556.216,173.311 557.05,173.978 558,174.5C 559.944,173.561 561.611,172.227 563,170.5C 563.833,172.167 564.667,173.833 565.5,175.5C 563.754,176.395 561.92,177.062 560,177.5C 557.518,176.867 555.184,177.534 553,179.5C 553.833,176.172 552.333,174.839 548.5,175.5C 549.231,173.401 549.231,171.401 548.5,169.5C 547.808,170.025 547.308,170.692 547,171.5C 545.667,170.167 544.333,170.167 543,171.5C 542.667,170.833 542.333,170.167 542,169.5C 541.79,171.058 541.29,172.391 540.5,173.5 Z M 276.5,267.5 C 273.833,267.5 271.167,267.5 268.5,267.5C 268.719,268.675 268.386,269.675 267.5,270.5C 262.967,272.559 259.467,271.559 257,267.5C 256.713,269.891 256.213,272.224 255.5,274.5C 263.314,274.784 270.314,272.451 276.5,267.5 Z M 216.5,258.5 C 215.023,267.954 211.023,276.121 204.5,283C 203.594,287.384 202.094,291.551 200,295.5C 199.26,298.176 198.927,300.842 199,303.5C 200.766,297.297 203.1,291.297 206,285.5C 209.824,280.664 212.824,275.331 215,269.5C 216.708,265.769 217.208,262.102 216.5,258.5 Z M 221.5,248.5 C 219.989,249.958 218.989,251.791 218.5,254C 218.833,254.167 219.167,254.333 219.5,254.5C 221.283,252.977 221.949,250.977 221.5,248.5 Z M 261.5,255.5 C 263.818,253.375 264.652,250.709 264,247.5C 263.059,250.154 262.226,252.821 261.5,255.5 Z M 225.5,239.5 C 225.691,243.288 224.358,246.288 221.5,248.5C 221.326,244.64 222.659,241.64 225.5,239.5 Z M 269.5,227.5 C 267.851,230.741 267.518,234.074 268.5,237.5C 269.248,234.503 269.915,231.503 270.5,228.5C 270.376,227.893 270.043,227.56 269.5,227.5 Z M 231.5,226.5 C 230.662,226.842 230.328,227.508 230.5,228.5C 229.379,230.954 228.546,233.621 228,236.5C 227.623,237.942 226.79,238.942 225.5,239.5C 226.395,234.845 227.729,230.345 229.5,226C 230.437,225.308 231.103,225.475 231.5,226.5 Z M 281.5,186.5 C 279.164,194.006 276.33,201.339 273,208.5C 272.059,214.517 271.393,220.517 271,226.5C 273.078,222.75 275.244,219.083 277.5,215.5C 277.167,214.833 276.833,214.167 276.5,213.5C 278.503,205.106 280.503,196.773 282.5,188.5C 282.457,187.584 282.124,186.917 281.5,186.5 Z M 303.5,293.5 C 301.478,295.693 298.811,296.693 295.5,296.5C 297.902,295.007 300.569,294.007 303.5,293.5 Z M 195.5,306.5 C 196.376,306.369 197.043,306.702 197.5,307.5C 196.811,309.522 195.478,310.856 193.5,311.5C 193.433,310.041 193.766,308.708 194.5,307.5C 195.167,307.5 195.5,307.167 195.5,306.5 Z M 193.5,311.5 C 193.5,312.833 193.5,314.167 193.5,315.5C 192.167,315.5 190.833,315.5 189.5,315.5C 190.5,313.833 191.833,312.5 193.5,311.5 Z M 189.5,315.5 C 188.246,319.482 185.579,322.149 181.5,323.5C 181.281,322.325 181.614,321.325 182.5,320.5C 185.13,319.196 187.463,317.53 189.5,315.5 Z M 181.5,323.5 C 181.152,326.019 179.819,327.853 177.5,329C 164.725,337.36 150.725,341.027 135.5,340C 119.562,345.234 103.228,348.734 86.5,350.5C 83.2169,349.673 79.8835,349.34 76.5,349.5C 97.5975,347.087 118.598,342.921 139.5,337C 144.167,336.667 148.833,336.333 153.5,336C 159.033,334.088 164.699,332.421 170.5,331C 173.792,327.862 177.458,325.362 181.5,323.5 Z M 181.5,482.5 C 179.166,479.334 176.333,476.667 173,474.5C 170.308,469.097 167.142,464.097 163.5,459.5C 153.222,433.175 147.889,405.842 147.5,377.5C 162.15,376.388 176.817,376.388 191.5,377.5C 192.065,381.799 192.399,386.132 192.5,390.5C 190.927,407.474 190.427,424.474 191,441.5C 198.947,455.952 201.447,471.285 198.5,487.5C 192.759,486.03 187.093,484.364 181.5,482.5 Z"/></g>
<g><path style="opacity:0.171" fill="#3B82F6" d="M 343.5,286.5 C 346.713,286.19 349.713,286.523 352.5,287.5C 351.207,288.158 349.707,288.492 348,288.5C 346.014,288.431 344.514,287.765 343.5,286.5 Z"/></g>
<g><path style="opacity:0.999" fill="#3B82F6" d="M 294.5,296.5 C 294.833,296.5 295.167,296.5 295.5,296.5C 298.811,296.693 301.478,295.693 303.5,293.5C 304.167,293.5 304.833,293.5 305.5,293.5C 323.547,293.859 341.547,293.193 359.5,291.5C 373.908,291.883 387.908,294.383 401.5,299C 407.742,303.555 414.742,306.221 422.5,307C 426.388,309.222 429.221,312.388 431,316.5C 433.427,326.718 434.427,337.052 434,347.5C 432.333,350.5 430,352.833 427,354.5C 426.717,362.632 424.717,370.299 421,377.5C 402.881,400.479 379.048,412.812 349.5,414.5C 347.453,416.015 345.119,416.849 342.5,417C 322.164,419.188 302.831,415.854 284.5,407C 279.399,404.067 275.065,400.234 271.5,395.5C 268.826,389.478 265.659,383.812 262,378.5C 260.702,359.481 262.702,340.814 268,322.5C 268.557,318.825 269.89,315.492 272,312.5C 278.521,305.632 286.021,300.298 294.5,296.5 Z"/></g>
<g><path style="opacity:0.996" fill="#3B82F6" d="M 608.5,377.5 C 608.5,378.167 608.167,378.5 607.5,378.5C 606.167,379.5 606.167,380.5 607.5,381.5C 606.89,382.391 606.557,383.391 606.5,384.5C 606.167,384.5 605.833,384.5 605.5,384.5C 605.5,380.5 605.5,376.5 605.5,372.5C 604.167,372.5 602.833,372.5 601.5,372.5C 601.998,369.326 601.998,365.993 601.5,362.5C 597.891,364.109 595.225,366.775 593.5,370.5C 594.037,371.741 594.704,372.908 595.5,374C 593.799,375.86 592.799,378.027 592.5,380.5C 588.551,380.693 588.551,381.193 592.5,382C 590.833,382.333 589.167,382.667 587.5,383C 588.935,385.267 588.602,387.267 586.5,389C 587.257,390.512 588.257,391.846 589.5,393C 587.015,395.21 585.182,394.71 584,391.5C 579.407,391.559 578.907,393.059 582.5,396C 580.699,396.317 580.366,396.984 581.5,398C 579.267,401.709 575.934,403.875 571.5,404.5C 570.41,405.391 570.41,406.391 571.5,407.5C 569.199,408.668 567.866,410.168 567.5,412C 564.768,412.154 562.102,411.654 559.5,410.5C 557.998,411.083 556.665,411.916 555.5,413C 557.516,413.899 559.183,415.233 560.5,417C 556.928,418.405 553.261,418.738 549.5,418C 552.591,417.309 553.757,415.476 553,412.5C 549.317,411.292 545.65,409.959 542,408.5C 540.162,409.535 538.329,410.535 536.5,411.5C 535.353,411.182 534.519,410.516 534,409.5C 532.16,410.833 531.66,410.666 532.5,409C 527.852,407.905 524.518,405.239 522.5,401C 520.5,400.167 518.5,399.333 516.5,398.5C 517.711,397.28 517.711,396.113 516.5,395C 513.569,392.485 510.236,390.819 506.5,390C 508.509,390.594 510.509,390.427 512.5,389.5C 514.809,390.651 516.976,391.984 519,393.5C 520.059,393.37 520.892,392.87 521.5,392C 516.203,390.866 516.203,390.032 521.5,389.5C 521.5,388.5 521.5,387.5 521.5,386.5C 518.435,384.839 515.102,383.506 511.5,382.5C 512.729,381.719 514.062,381.219 515.5,381C 512.279,379.722 508.946,378.889 505.5,378.5C 505.5,377.5 505.5,376.5 505.5,375.5C 506.873,375.657 508.207,375.49 509.5,375C 507.947,373.903 506.614,372.57 505.5,371C 502.765,371.198 500.099,371.031 497.5,370.5C 498.213,368.224 498.713,365.891 499,363.5C 499.5,362.333 500.333,361.5 501.5,361C 499.963,359.89 499.297,358.39 499.5,356.5C 498.022,356.238 496.689,356.571 495.5,357.5C 496.471,358.962 496.138,360.295 494.5,361.5C 493.808,360.975 493.308,360.308 493,359.5C 491.667,359.5 490.333,359.5 489,359.5C 488.529,357.754 487.862,356.087 487,354.5C 486.567,346.872 486.067,339.538 485.5,332.5C 484.5,332.5 483.5,332.5 482.5,332.5C 484.872,323.295 490.539,317.128 499.5,314C 517.236,310.475 535.07,307.975 553,306.5C 566.959,305.075 580.126,307.575 592.5,314C 600.584,320.998 605.418,329.831 607,340.5C 607.169,353.007 607.669,365.34 608.5,377.5 Z"/></g>
<g><path style="opacity:0.996" fill="#3B82F6" d="M 482.5,332.5 C 483.5,332.5 484.5,332.5 485.5,332.5C 486.067,339.538 486.567,346.872 487,354.5C 487.862,356.087 488.529,357.754 489,359.5C 490.333,359.5 491.667,359.5 493,359.5C 493.308,360.308 493.808,360.975 494.5,361.5C 496.138,360.295 496.471,358.962 495.5,357.5C 496.689,356.571 498.022,356.238 499.5,356.5C 499.297,358.39 499.963,359.89 501.5,361C 500.333,361.5 499.5,362.333 499,363.5C 498.713,365.891 498.213,368.224 497.5,370.5C 500.099,371.031 502.765,371.198 505.5,371C 506.614,372.57 507.947,373.903 509.5,375C 508.207,375.49 506.873,375.657 505.5,375.5C 505.5,376.5 505.5,377.5 505.5,378.5C 508.946,378.889 512.279,379.722 515.5,381C 514.062,381.219 512.729,381.719 511.5,382.5C 515.102,383.506 518.435,384.839 521.5,386.5C 521.5,387.5 521.5,388.5 521.5,389.5C 516.203,390.032 516.203,390.866 521.5,392C 520.892,392.87 520.059,393.37 519,393.5C 516.976,391.984 514.809,390.651 512.5,389.5C 510.509,390.427 508.509,390.594 506.5,390C 510.236,390.819 513.569,392.485 516.5,395C 517.711,396.113 517.711,397.28 516.5,398.5C 518.5,399.333 520.5,400.167 522.5,401C 524.518,405.239 527.852,407.905 532.5,409C 531.66,410.666 532.16,410.833 534,409.5C 534.519,410.516 535.353,411.182 536.5,411.5C 538.329,410.535 540.162,409.535 542,408.5C 545.65,409.959 549.317,411.292 553,412.5C 553.757,415.476 552.591,417.309 549.5,418C 553.261,418.738 556.928,418.405 560.5,417C 559.183,415.233 557.516,413.899 555.5,413C 556.665,411.916 557.998,411.083 559.5,410.5C 562.102,411.654 564.768,412.154 567.5,412C 567.866,410.168 569.199,408.668 571.5,407.5C 570.41,406.391 570.41,405.391 571.5,404.5C 575.934,403.875 579.267,401.709 581.5,398C 580.366,396.984 580.699,396.317 582.5,396C 578.907,393.059 579.407,391.559 584,391.5C 585.182,394.71 587.015,395.21 589.5,393C 588.257,391.846 587.257,390.512 586.5,389C 588.602,387.267 588.935,385.267 587.5,383C 589.167,382.667 590.833,382.333 592.5,382C 588.551,381.193 588.551,380.693 592.5,380.5C 592.799,378.027 593.799,375.86 595.5,374C 594.704,372.908 594.037,371.741 593.5,370.5C 595.225,366.775 597.891,364.109 601.5,362.5C 601.998,365.993 601.998,369.326 601.5,372.5C 602.833,372.5 604.167,372.5 605.5,372.5C 605.5,376.5 605.5,380.5 605.5,384.5C 605.833,385.833 606.167,385.833 606.5,384.5C 606.557,383.391 606.89,382.391 607.5,381.5C 607.5,380.5 607.5,379.5 607.5,378.5C 608.167,378.5 608.5,378.167 608.5,377.5C 610.22,374.111 610.887,370.444 610.5,366.5C 611.873,366.343 613.207,366.51 614.5,367C 616.758,369.585 618.591,372.418 620,375.5C 620.667,388.5 620.667,401.5 620,414.5C 618.729,418.979 617.062,423.312 615,427.5C 611.62,444.642 607.62,461.642 603,478.5C 600.333,485.833 597.667,493.167 595,500.5C 589.865,506.536 584.365,512.37 578.5,518C 572.116,524.434 566.283,523.934 561,516.5C 558.762,529.022 555.762,541.355 552,553.5C 551.576,556.025 550.41,558.025 548.5,559.5C 548.5,558.5 548.5,557.5 548.5,556.5C 546.857,556.52 545.524,555.853 544.5,554.5C 543.056,556.608 542.39,558.941 542.5,561.5C 541.5,561.5 540.5,561.5 539.5,561.5C 542.294,567.989 540.294,571.823 533.5,573C 532.313,574.019 531.313,575.186 530.5,576.5C 532.865,577.085 534.865,578.252 536.5,580C 532.949,581.761 531.949,584.428 533.5,588C 532.059,592.007 531.226,596.174 531,600.5C 528.589,603.779 526.922,607.445 526,611.5C 525.505,613.473 525.338,615.473 525.5,617.5C 524.127,617.657 522.793,617.49 521.5,617C 520.495,615.493 519.162,614.327 517.5,613.5C 518.428,611.227 518.428,608.894 517.5,606.5C 518.068,604.631 518.734,602.797 519.5,601C 518.923,598.863 518.59,596.696 518.5,594.5C 519.833,594.5 521.167,594.5 522.5,594.5C 522.822,592.278 522.155,590.444 520.5,589C 521.793,588.51 523.127,588.343 524.5,588.5C 524.808,586.076 524.474,583.743 523.5,581.5C 522.914,581.709 522.414,582.043 522,582.5C 521.51,581.207 521.343,579.873 521.5,578.5C 524.997,578.005 525.997,576.172 524.5,573C 526.345,571.872 528.345,571.372 530.5,571.5C 530.5,570.5 530.5,569.5 530.5,568.5C 529.5,568.5 528.5,568.5 527.5,568.5C 527.5,567.5 527.5,566.5 527.5,565.5C 525.876,565.64 524.71,564.973 524,563.5C 523.821,560.447 523.321,557.447 522.5,554.5C 521.264,553.754 519.93,553.421 518.5,553.5C 518.167,551.5 517.833,549.5 517.5,547.5C 515.396,547.799 513.396,547.466 511.5,546.5C 513.922,544.952 513.922,543.286 511.5,541.5C 508.901,540.969 506.235,540.802 503.5,541C 501.545,538.674 499.545,536.341 497.5,534C 495.231,533.242 493.064,533.409 491,534.5C 490.505,532.527 490.338,530.527 490.5,528.5C 489.167,528.5 487.833,528.5 486.5,528.5C 486.67,527.178 486.337,526.011 485.5,525C 481.887,522.772 477.887,521.438 473.5,521C 469.692,519.819 466.525,520.652 464,523.5C 458.33,522.086 452.83,522.419 447.5,524.5C 444.161,523.488 440.828,522.488 437.5,521.5C 437.5,522.5 437.5,523.5 437.5,524.5C 434.167,524.5 430.833,524.5 427.5,524.5C 427.762,523.022 427.429,521.689 426.5,520.5C 420.301,521.05 413.968,521.05 407.5,520.5C 406.614,521.325 406.281,522.325 406.5,523.5C 403.881,523.768 401.381,523.435 399,522.5C 394.438,526.573 389.272,528.407 383.5,528C 382.646,529.022 381.646,529.855 380.5,530.5C 379.15,529.05 377.484,528.383 375.5,528.5C 375.167,531.167 374.833,533.833 374.5,536.5C 372.167,536.5 369.833,536.5 367.5,536.5C 367.344,540.135 366.178,540.468 364,537.5C 363.517,536.552 363.351,535.552 363.5,534.5C 358.765,534.03 357.765,535.53 360.5,539C 360.122,540.635 359.456,542.135 358.5,543.5C 357.914,543.291 357.414,542.957 357,542.5C 356.032,537.64 356.532,532.974 358.5,528.5C 357.05,527.15 356.383,525.484 356.5,523.5C 354.678,523.831 353.011,524.498 351.5,525.5C 357.198,520.291 362.031,514.291 366,507.5C 373.395,500.229 381.562,494.063 390.5,489C 392.003,486.009 394.503,484.843 398,485.5C 402.462,484.484 405.296,486.15 406.5,490.5C 409.673,492.587 413.006,494.421 416.5,496C 428.095,498.408 439.761,500.408 451.5,502C 455.161,502.829 458.495,504.329 461.5,506.5C 466.326,503.197 471.326,500.031 476.5,497C 487.847,495.647 498.847,496.98 509.5,501C 514.454,504.285 519.12,507.952 523.5,512C 525.134,512.494 526.801,512.66 528.5,512.5C 528.894,516.406 530.06,520.072 532,523.5C 533.11,525.037 534.61,525.703 536.5,525.5C 536.177,521.292 537.511,517.792 540.5,515C 544.779,501.232 549.279,487.398 554,473.5C 555.231,467.512 556.398,461.512 557.5,455.5C 556.299,449.495 556.299,443.495 557.5,437.5C 558.478,437.977 559.311,438.643 560,439.5C 561.769,443.307 562.602,447.307 562.5,451.5C 561.297,458.317 560.297,465.15 559.5,472C 560.695,475.56 562.529,478.726 565,481.5C 565.706,476.01 567.039,470.677 569,465.5C 569.333,456.833 569.667,448.167 570,439.5C 572.531,431.263 577.365,424.763 584.5,420C 566.896,427.287 548.563,429.62 529.5,427C 509.307,420.141 494.807,406.975 486,387.5C 481.461,369.359 480.294,351.026 482.5,332.5 Z"/></g>
<g><path style="opacity:0.98" fill="#3B82F6" d="M 451.5,322.5 C 459.219,321.574 466.052,323.574 472,328.5C 473.355,337.102 474.355,345.768 475,354.5C 476.667,358.833 478.333,363.167 480,367.5C 484.797,386.225 489.797,404.891 495,423.5C 501.876,438.426 505.209,454.092 505,470.5C 503.878,472.624 502.378,474.457 500.5,476C 497.088,477.459 494.088,479.459 491.5,482C 488.086,482.297 484.753,482.964 481.5,484C 477.124,489.675 472.124,494.675 466.5,499C 460.802,498.529 455.135,497.529 449.5,496C 448.027,495.29 447.36,494.124 447.5,492.5C 437.116,491.331 426.782,489.831 416.5,488C 399.639,481.115 394.139,468.948 400,451.5C 403.423,445.173 407.923,439.673 413.5,435C 416.045,434.385 418.378,434.885 420.5,436.5C 418.432,442.538 416.265,448.538 414,454.5C 412.586,458.548 413.919,460.881 418,461.5C 432.977,456.603 446.31,459.27 458,469.5C 464.758,471.065 471.591,472.065 478.5,472.5C 478.5,471.167 478.5,469.833 478.5,468.5C 482.554,468.741 483.887,467.074 482.5,463.5C 485.218,457.78 486.051,451.78 485,445.5C 482.333,440.833 479.667,436.167 477,431.5C 474.334,420.841 471.667,410.174 469,399.5C 465.457,393.748 462.457,387.748 460,381.5C 457.702,367.748 456.369,353.748 456,339.5C 454.489,336.204 453.323,332.871 452.5,329.5C 450.5,329.5 448.5,329.5 446.5,329.5C 446.343,328.127 446.51,326.793 447,325.5C 448.652,324.601 450.152,323.601 451.5,322.5 Z M 430.5,467.5 C 436.192,468.472 441.859,469.639 447.5,471C 450.321,473.717 449.987,476.05 446.5,478C 441.217,478.881 436.217,478.048 431.5,475.5C 432.833,474.5 434.167,473.5 435.5,472.5C 433.427,470.797 431.094,469.63 428.5,469C 429.416,468.722 430.082,468.222 430.5,467.5 Z"/></g>
<g><path style="opacity:0.993" fill="#3B82F6" d="M 548.5,559.5 C 545.514,567.885 543.681,576.552 543,585.5C 542.19,587.306 541.024,588.806 539.5,590C 534.897,603.037 530.73,616.204 527,629.5C 522.297,634.747 518.797,640.747 516.5,647.5C 515.643,648.425 514.643,649.092 513.5,649.5C 513.539,648.417 513.873,647.417 514.5,646.5C 513.975,645.808 513.308,645.308 512.5,645C 512.461,643.755 512.795,642.422 513.5,641C 512.922,639.189 512.422,637.355 512,635.5C 508.194,633.745 504.361,633.078 500.5,633.5C 498.501,632.492 496.834,631.159 495.5,629.5C 496.235,625.707 498.235,622.707 501.5,620.5C 502.139,615.883 504.306,612.216 508,609.5C 508.333,609.833 508.667,610.167 509,610.5C 508.559,603.863 508.559,597.196 509,590.5C 513.014,583.134 516.514,575.468 519.5,567.5C 518.631,564.059 517.464,560.726 516,557.5C 510.47,551.975 503.97,547.809 496.5,545C 492.5,542.333 489.167,539 486.5,535C 481.833,533.667 477.167,532.333 472.5,531C 463.059,530.395 453.725,529.895 444.5,529.5C 442.86,531.64 440.693,532.64 438,532.5C 428.89,530.772 419.723,529.939 410.5,530C 405.679,536.129 399.346,538.796 391.5,538C 387.89,539.944 384.557,542.277 381.5,545C 377.137,545.894 372.804,546.894 368.5,548C 365.975,552.558 362.642,556.392 358.5,559.5C 353.207,561.673 349.041,560.34 346,555.5C 345.333,550.167 345.333,544.833 346,539.5C 347.08,537.004 348.414,534.67 350,532.5C 350.186,529.964 350.686,527.631 351.5,525.5C 353.011,524.498 354.678,523.831 356.5,523.5C 356.383,525.484 357.05,527.15 358.5,528.5C 356.532,532.974 356.032,537.64 357,542.5C 357.414,542.957 357.914,543.291 358.5,543.5C 359.456,542.135 360.122,540.635 360.5,539C 357.765,535.53 358.765,534.03 363.5,534.5C 363.351,535.552 363.517,536.552 364,537.5C 366.178,540.468 367.344,540.135 367.5,536.5C 369.833,536.5 372.167,536.5 374.5,536.5C 374.833,533.833 375.167,531.167 375.5,528.5C 377.484,528.383 379.15,529.05 380.5,530.5C 381.646,529.855 382.646,529.022 383.5,528C 389.272,528.407 394.438,526.573 399,522.5C 401.381,523.435 403.881,523.768 406.5,523.5C 406.281,522.325 406.614,521.325 407.5,520.5C 413.968,521.05 420.301,521.05 426.5,520.5C 427.429,521.689 427.762,523.022 427.5,524.5C 430.833,524.5 434.167,524.5 437.5,524.5C 437.5,523.5 437.5,522.5 437.5,521.5C 440.828,522.488 444.161,523.488 447.5,524.5C 452.83,522.419 458.33,522.086 464,523.5C 466.525,520.652 469.692,519.819 473.5,521C 477.887,521.438 481.887,522.772 485.5,525C 486.337,526.011 486.67,527.178 486.5,528.5C 487.833,528.5 489.167,528.5 490.5,528.5C 490.338,530.527 490.505,532.527 491,534.5C 493.064,533.409 495.231,533.242 497.5,534C 499.545,536.341 501.545,538.674 503.5,541C 506.235,540.802 508.901,540.969 511.5,541.5C 513.922,543.286 513.922,544.952 511.5,546.5C 513.396,547.466 515.396,547.799 517.5,547.5C 517.833,549.5 518.167,551.5 518.5,553.5C 519.93,553.421 521.264,553.754 522.5,554.5C 523.321,557.447 523.821,560.447 524,563.5C 524.71,564.973 525.876,565.64 527.5,565.5C 527.5,566.5 527.5,567.5 527.5,568.5C 528.5,568.5 529.5,568.5 530.5,568.5C 530.5,569.5 530.5,570.5 530.5,571.5C 528.345,571.372 526.345,571.872 524.5,573C 525.997,576.172 524.997,578.005 521.5,578.5C 521.343,579.873 521.51,581.207 522,582.5C 522.414,582.043 522.914,581.709 523.5,581.5C 524.474,583.743 524.808,586.076 524.5,588.5C 523.127,588.343 521.793,588.51 520.5,589C 522.155,590.444 522.822,592.278 522.5,594.5C 521.167,594.5 519.833,594.5 518.5,594.5C 518.59,596.696 518.923,598.863 519.5,601C 518.734,602.797 518.068,604.631 517.5,606.5C 518.428,608.894 518.428,611.227 517.5,613.5C 519.162,614.327 520.495,615.493 521.5,617C 522.793,617.49 524.127,617.657 525.5,617.5C 525.338,615.473 525.505,613.473 526,611.5C 526.922,607.445 528.589,603.779 531,600.5C 531.226,596.174 532.059,592.007 533.5,588C 531.949,584.428 532.949,581.761 536.5,580C 534.865,578.252 532.865,577.085 530.5,576.5C 531.313,575.186 532.313,574.019 533.5,573C 540.294,571.823 542.294,567.989 539.5,561.5C 540.5,561.5 541.5,561.5 542.5,561.5C 542.39,558.941 543.056,556.608 544.5,554.5C 545.524,555.853 546.857,556.52 548.5,556.5C 548.5,557.5 548.5,558.5 548.5,559.5 Z"/></g>
<g><path style="opacity:0.993" fill="#3B82F6" d="M 163.5,459.5 C 167.142,464.097 170.308,469.097 173,474.5C 176.333,476.667 179.166,479.334 181.5,482.5C 179.353,483.932 179.02,485.765 180.5,488C 179.584,488.374 178.75,488.874 178,489.5C 177.182,492.227 177.348,494.894 178.5,497.5C 179.086,497.291 179.586,496.957 180,496.5C 180.347,498.18 181.347,499.18 183,499.5C 188.55,497.755 192.717,498.755 195.5,502.5C 199.038,503.163 202.205,504.497 205,506.5C 205.833,505.667 206.667,504.833 207.5,504C 205.212,503.178 202.878,502.511 200.5,502C 199.663,500.989 199.33,499.822 199.5,498.5C 203.534,498.368 206.867,497.368 209.5,495.5C 207.922,494.702 206.256,494.202 204.5,494C 204.833,493.667 205.167,493.333 205.5,493C 204.257,491.846 203.257,490.512 202.5,489C 204.93,488.357 206.597,486.857 207.5,484.5C 209.003,485.052 210.669,485.052 212.5,484.5C 212.84,487.144 212.173,489.477 210.5,491.5C 213.097,495.548 215.097,495.215 216.5,490.5C 220.644,489.433 224.311,490.433 227.5,493.5C 230.057,492.466 231.391,493.466 231.5,496.5C 233.942,496.354 234.609,497.187 233.5,499C 235.359,499.684 237.026,500.684 238.5,502C 237.594,503.699 237.261,505.533 237.5,507.5C 238.833,507.5 240.167,507.5 241.5,507.5C 240.948,509.331 240.948,510.997 241.5,512.5C 241.023,513.478 240.357,514.311 239.5,515C 241.166,517.48 241.999,520.313 242,523.5C 244.097,524.991 246.43,525.991 249,526.5C 249.707,528.081 250.54,529.581 251.5,531C 249.038,532.85 249.538,534.017 253,534.5C 252.711,538.207 252.878,541.874 253.5,545.5C 256.301,548.196 259.634,550.029 263.5,551C 262.62,552.356 262.286,553.856 262.5,555.5C 264.604,555.799 266.604,555.466 268.5,554.5C 270.92,551.923 273.92,550.923 277.5,551.5C 277.567,550.041 277.234,548.708 276.5,547.5C 283.874,551.36 291.207,555.527 298.5,560C 313.264,560.715 327.93,562.382 342.5,565C 347.993,567.512 350.66,571.845 350.5,578C 348.964,583.421 347.797,588.921 347,594.5C 340.972,600.903 338.639,608.57 340,617.5C 340.333,618.5 340.667,619.5 341,620.5C 353.099,630.264 364.265,641.097 374.5,653C 381.42,655.629 388.42,657.963 395.5,660C 405.347,661.019 415.014,660.186 424.5,657.5C 428.708,648.129 435.708,641.629 445.5,638C 454.215,637.196 462.882,637.363 471.5,638.5C 472.5,638.167 473.167,637.5 473.5,636.5C 481.553,636.165 488.886,633.832 495.5,629.5C 496.834,631.159 498.501,632.492 500.5,633.5C 504.361,633.078 508.194,633.745 512,635.5C 512.422,637.355 512.922,639.189 513.5,641C 512.795,642.422 512.461,643.755 512.5,645C 513.308,645.308 513.975,645.808 514.5,646.5C 513.873,647.417 513.539,648.417 513.5,649.5C 511.12,656.543 506.954,662.543 501,667.5C 496.873,674.619 491.706,680.786 485.5,686C 482.904,687.136 480.237,687.969 477.5,688.5C 477.703,690.39 477.037,691.89 475.5,693C 466.612,692.92 457.945,694.254 449.5,697C 425.016,697.452 401.016,694.285 377.5,687.5C 376.446,687.68 375.446,688.013 374.5,688.5C 351.375,682.513 329.375,673.679 308.5,662C 301.517,654.355 293.85,647.355 285.5,641C 281.478,635.98 277.144,631.314 272.5,627C 268.084,624.588 264.251,621.422 261,617.5C 255.653,611.817 250.653,605.817 246,599.5C 240.709,594.03 235.042,589.03 229,584.5C 226.888,581.273 225.055,577.94 223.5,574.5C 225.787,571.901 227.953,572.234 230,575.5C 231,574.5 232,573.5 233,572.5C 233.11,575.646 234.443,576.646 237,575.5C 237.432,578.079 236.265,579.579 233.5,580C 235.839,587.182 240.839,591.016 248.5,591.5C 249.096,592.716 249.263,594.049 249,595.5C 252.039,597.28 255.206,599.614 258.5,602.5C 258.579,606.674 260.579,609.341 264.5,610.5C 264.291,611.086 263.957,611.586 263.5,612C 268.702,615.266 274.369,616.266 280.5,615C 279.521,613.221 279.854,611.555 281.5,610C 278.405,609.687 275.405,610.187 272.5,611.5C 269.847,610.715 269.18,609.215 270.5,607C 272.134,606.506 273.801,606.34 275.5,606.5C 274.802,603.788 273.468,601.454 271.5,599.5C 270.749,600.376 270.249,601.376 270,602.5C 269.311,601.643 268.478,600.977 267.5,600.5C 264.671,601.501 261.671,601.501 258.5,600.5C 258.5,599.5 258.5,598.5 258.5,597.5C 259.5,597.5 260.5,597.5 261.5,597.5C 261.34,595.801 261.506,594.134 262,592.5C 264.069,595.477 265.903,595.644 267.5,593C 272.55,591.525 272.383,590.025 267,588.5C 265.45,588.95 263.95,589.117 262.5,589C 263.167,588.333 263.833,587.667 264.5,587C 263.283,585.352 262.45,583.519 262,581.5C 261.653,583.18 260.653,584.18 259,584.5C 257.403,583.115 255.57,582.449 253.5,582.5C 253.5,581.167 253.5,579.833 253.5,578.5C 252.127,578.657 250.793,578.49 249.5,578C 250.667,576.167 252.167,574.667 254,573.5C 254.667,572.5 254.667,571.5 254,570.5C 251.502,571.121 249.168,570.455 247,568.5C 247.227,566.312 246.894,563.979 246,561.5C 244.601,560.773 243.101,560.273 241.5,560C 242.624,559.751 243.624,559.251 244.5,558.5C 242.32,554.801 240.153,551.134 238,547.5C 236.606,549.402 234.773,549.735 232.5,548.5C 232.037,545.518 231.704,542.518 231.5,539.5C 226.638,537.856 226.638,536.689 231.5,536C 232.451,535.282 232.617,534.449 232,533.5C 230.676,532.12 229.343,531.786 228,532.5C 228.197,527.886 226.031,525.886 221.5,526.5C 221.002,529.487 220.502,532.487 220,535.5C 217.806,533.306 215.64,531.14 213.5,529C 213.67,527.43 214.003,525.597 214.5,523.5C 213.022,523.762 211.689,523.429 210.5,522.5C 210.983,520.083 209.817,518.416 207,517.5C 204.385,519.589 201.551,519.922 198.5,518.5C 197.779,520.686 197.113,522.853 196.5,525C 194.167,525.333 191.833,525.667 189.5,526C 189.493,527.583 189.826,529.249 190.5,531C 189.953,533.367 188.953,535.533 187.5,537.5C 190.322,543.17 189.656,548.503 185.5,553.5C 185.744,556.35 186.077,559.183 186.5,562C 185.062,562.219 183.729,562.719 182.5,563.5C 183.76,567.801 183.093,571.801 180.5,575.5C 181.167,576.167 181.833,576.833 182.5,577.5C 180.922,578.298 179.256,578.798 177.5,579C 176.663,580.011 176.33,581.178 176.5,582.5C 174.058,582.354 173.391,583.187 174.5,585C 172.91,586.046 171.41,587.213 170,588.5C 169.689,589.742 170.189,590.742 171.5,591.5C 168.918,595.8 167.584,595.467 167.5,590.5C 164.834,590.933 162.168,591.433 159.5,592C 161.396,593.065 161.563,593.898 160,594.5C 157.285,593.262 154.618,593.262 152,594.5C 149.735,592.278 147.568,589.945 145.5,587.5C 144.614,588.325 144.281,589.325 144.5,590.5C 142.345,590.628 140.345,590.128 138.5,589C 139.167,588.667 139.833,588.333 140.5,588C 139.426,587.261 138.759,586.261 138.5,585C 139.969,580.841 139.303,577.007 136.5,573.5C 137.214,571.189 138.214,569.022 139.5,567C 138.542,565.853 138.875,564.853 140.5,564C 139.707,561.568 139.374,559.234 139.5,557C 141.25,555.681 143.25,555.181 145.5,555.5C 145.877,547.295 146.211,539.128 146.5,531C 144.827,529.986 143.494,528.486 142.5,526.5C 143.551,524.471 144.885,522.637 146.5,521C 145.678,518.566 145.344,516.066 145.5,513.5C 149.554,513.79 150.054,513.123 147,511.5C 146.711,504.792 146.045,498.125 145,491.5C 144.618,496.025 142.118,497.691 137.5,496.5C 137.44,500.485 139.44,502.152 143.5,501.5C 144.707,504.946 144.54,508.279 143,511.5C 142.147,509.875 141.147,509.542 140,510.5C 139.667,508.833 139.333,507.167 139,505.5C 138.333,507.5 137.667,509.5 137,511.5C 135.506,510.253 134.006,510.253 132.5,511.5C 134.678,512.657 136.678,513.99 138.5,515.5C 137.225,518.373 136.392,521.373 136,524.5C 135.517,523.552 135.351,522.552 135.5,521.5C 134.167,521.5 132.833,521.5 131.5,521.5C 131.261,519.533 131.594,517.699 132.5,516C 131.874,515.25 131.374,514.416 131,513.5C 130.333,507.833 130.333,502.167 131,496.5C 131.667,497.167 132.333,497.833 133,498.5C 133.5,489.84 133.666,481.173 133.5,472.5C 132.448,472.649 131.448,472.483 130.5,472C 131.641,471.259 131.641,470.425 130.5,469.5C 132.718,468.943 135.051,468.943 137.5,469.5C 137.5,471.167 137.5,472.833 137.5,474.5C 138.552,474.649 139.552,474.483 140.5,474C 139.289,473.107 139.289,472.274 140.5,471.5C 141.251,472.376 141.751,473.376 142,474.5C 144.683,473.107 144.85,471.774 142.5,470.5C 146.929,469.042 147.596,466.542 144.5,463C 146.25,461.681 148.25,461.181 150.5,461.5C 150.338,463.527 150.505,465.527 151,467.5C 152.667,468.833 154.333,468.833 156,467.5C 158.369,468.927 158.869,470.761 157.5,473C 158.833,473.667 160.167,474.333 161.5,475C 160.833,475.333 160.167,475.667 159.5,476C 161.708,478.263 161.041,479.929 157.5,481C 161.458,484.525 165.625,485.691 170,484.5C 171.152,486.512 172.318,486.678 173.5,485C 170.469,481.77 167.803,478.27 165.5,474.5C 166.376,473.749 167.376,473.249 168.5,473C 166.112,472.697 163.945,471.863 162,470.5C 161.852,467.411 161.019,464.578 159.5,462C 159.667,461.5 159.833,461 160,460.5C 162.178,463.468 163.344,463.135 163.5,459.5 Z"/></g>
<g><path style="opacity:0.989" fill="#3B82F6" d="M 449.5,588.5 C 468.224,586.266 475.057,594.266 470,612.5C 467.925,616.579 465.092,620.079 461.5,623C 454.118,623.747 446.785,623.414 439.5,622C 435.583,619.344 431.25,617.678 426.5,617C 417.511,611.217 417.178,604.883 425.5,598C 432.699,592.55 440.699,589.384 449.5,588.5 Z"/></g>
</svg>
